<svg width="495" height="76" viewBox="0 0 495 76" fill="none" xmlns="http://www.w3.org/2000/svg">
<path d="M62.2 55.1C62.2 58.1667 61.7333 60.9667 60.8 63.5C59.9333 65.9667 58.3333 68.1 56 69.9C53.7333 71.6333 50.6 73 46.6 74C42.6 75 37.5 75.5 31.3 75.5C25.1 75.5 20 75 16 74C12 73 8.83333 71.6333 6.5 69.9C4.23333 68.1 2.63333 65.9667 1.7 63.5C0.833334 60.9667 0.4 58.1667 0.4 55.1V5.6C0.4 4.33333 0.666667 3.43333 1.2 2.9C1.8 2.3 2.73333 2 4 2H19.7C20.9667 2 21.8667 2.3 22.4 2.9C23 3.43333 23.3 4.33333 23.3 5.6V51.2C23.3 52.5333 23.8 53.6667 24.8 54.6C25.8 55.4667 28.0333 55.9 31.5 55.9C35.0333 55.9 37.3 55.4667 38.3 54.6C39.3 53.6667 39.8 52.5333 39.8 51.2V5.6C39.8 4.33333 40.0667 3.43333 40.6 2.9C41.2 2.3 42.1333 2 43.4 2H58.6C59.8667 2 60.7667 2.3 61.3 2.9C61.9 3.43333 62.2 4.33333 62.2 5.6V55.1ZM126.409 74H76.8094C75.5427 74 74.6094 73.7333 74.0094 73.2C73.476 72.6 73.2094 71.6667 73.2094 70.4V57C73.2094 55.7333 73.4094 54.6333 73.8094 53.7C74.2094 52.7 74.8427 51.7333 75.7094 50.8L100.009 21.3H78.6094C77.3427 21.3 76.4094 21.0333 75.8094 20.5C75.276 19.9 75.0094 18.9667 75.0094 17.7V5.6C75.0094 4.33333 75.276 3.43333 75.8094 2.9C76.4094 2.3 77.3427 2 78.6094 2H124.609C125.876 2 126.776 2.3 127.309 2.9C127.909 3.43333 128.209 4.33333 128.209 5.6V20.5C128.209 21.8333 128.009 23 127.609 24C127.209 24.9333 126.576 25.8667 125.709 26.8L102.509 54.9H126.409C127.676 54.9 128.576 55.2 129.109 55.8C129.709 56.3333 130.009 57.2333 130.009 58.5V70.4C130.009 71.6667 129.709 72.6 129.109 73.2C128.576 73.7333 127.676 74 126.409 74ZM178.825 74H145.125C143.858 74 142.925 73.7333 142.325 73.2C141.792 72.6 141.525 71.6667 141.525 70.4V5.6C141.525 4.33333 141.792 3.43333 142.325 2.9C142.925 2.3 143.858 2 145.125 2H178.825C187.158 2 193.325 3.66666 197.325 7C201.392 10.3333 203.425 15.4667 203.425 22.4V53.6C203.425 60.5333 201.392 65.6667 197.325 69C193.325 72.3333 187.158 74 178.825 74ZM164.225 21.1V55.1H176.125C177.725 55.1 178.892 54.7 179.625 53.9C180.425 53.1 180.825 51.8667 180.825 50.2V25.9C180.825 24.2333 180.425 23.0333 179.625 22.3C178.892 21.5 177.725 21.1 176.125 21.1H164.225ZM277.434 55.1C277.434 58.1667 276.968 60.9667 276.034 63.5C275.168 65.9667 273.568 68.1 271.234 69.9C268.968 71.6333 265.834 73 261.834 74C257.834 75 252.734 75.5 246.534 75.5C240.334 75.5 235.234 75 231.234 74C227.234 73 224.068 71.6333 221.734 69.9C219.468 68.1 217.868 65.9667 216.934 63.5C216.068 60.9667 215.634 58.1667 215.634 55.1V5.6C215.634 4.33333 215.901 3.43333 216.434 2.9C217.034 2.3 217.968 2 219.234 2H234.934C236.201 2 237.101 2.3 237.634 2.9C238.234 3.43333 238.534 4.33333 238.534 5.6V51.2C238.534 52.5333 239.034 53.6667 240.034 54.6C241.034 55.4667 243.268 55.9 246.734 55.9C250.268 55.9 252.534 55.4667 253.534 54.6C254.534 53.6667 255.034 52.5333 255.034 51.2V5.6C255.034 4.33333 255.301 3.43333 255.834 2.9C256.434 2.3 257.368 2 258.634 2H273.834C275.101 2 276.001 2.3 276.534 2.9C277.134 3.43333 277.434 4.33333 277.434 5.6V55.1ZM332.744 74H294.344C293.077 74 292.144 73.7333 291.544 73.2C291.01 72.6 290.744 71.6667 290.744 70.4V5.6C290.744 4.33333 291.01 3.43333 291.544 2.9C292.144 2.3 293.077 2 294.344 2H326.244C332.777 2 337.61 3.26666 340.744 5.8C343.877 8.26666 345.444 12.1 345.444 17.3V22.1C345.444 24.9 344.944 27.2 343.944 29C343.01 30.7333 341.544 32.0333 339.544 32.9C343.81 33.3 346.977 34.7667 349.044 37.3C351.11 39.8333 352.144 43.5333 352.144 48.4V57.6C352.144 63.2 350.544 67.3333 347.344 70C344.21 72.6667 339.344 74 332.744 74ZM313.244 19V29.8H321.744C323.01 29.8 323.944 29.4667 324.544 28.8C325.21 28.1333 325.544 27.1333 325.544 25.8V23C325.544 21.6667 325.21 20.6667 324.544 20C323.944 19.3333 323.01 19 321.744 19H313.244ZM313.244 45.2V57H326.244C327.51 57 328.444 56.6667 329.044 56C329.71 55.3333 330.044 54.3333 330.044 53V49.1C330.044 47.7667 329.71 46.8 329.044 46.2C328.444 45.5333 327.51 45.2 326.244 45.2H313.244Z" fill="white"/>
<path d="M418.205 74H386.705C378.371 74 372.171 72.3333 368.105 69C364.105 65.6667 362.105 60.5333 362.105 53.6V22.4C362.105 15.4667 364.105 10.3333 368.105 7C372.171 3.66666 378.371 2 386.705 2H411.705C412.971 2 413.871 2.3 414.405 2.9C415.005 3.43333 415.305 4.33333 415.305 5.6V17.7C415.305 18.9667 415.005 19.9 414.405 20.5C413.871 21.0333 412.971 21.3 411.705 21.3H390.905C388.838 21.3 387.305 21.7333 386.305 22.6C385.305 23.4 384.805 24.6333 384.805 26.3V50.2C384.805 51.8667 385.171 53.1 385.905 53.9C386.705 54.7 387.871 55.1 389.405 55.1H399.105V39.5C399.105 38.2333 399.371 37.3333 399.905 36.8C400.505 36.2 401.438 35.9 402.705 35.9H418.205C419.471 35.9 420.371 36.2 420.905 36.8C421.505 37.3333 421.805 38.2333 421.805 39.5V70.4C421.805 71.6667 421.505 72.6 420.905 73.2C420.371 73.7333 419.471 74 418.205 74ZM495.005 55.1C495.005 58.1667 494.539 60.9667 493.605 63.5C492.739 65.9667 491.139 68.1 488.805 69.9C486.539 71.6333 483.372 73 479.305 74C475.305 75 470.205 75.5 464.005 75.5C457.805 75.5 452.672 75 448.605 74C444.539 73 441.339 71.6333 439.005 69.9C436.739 68.1 435.139 65.9667 434.205 63.5C433.339 60.9667 432.905 58.1667 432.905 55.1V21C432.905 17.9333 433.339 15.1667 434.205 12.7C435.139 10.1667 436.739 8 439.005 6.2C441.339 4.4 444.539 3 448.605 2C452.672 0.999998 457.805 0.499999 464.005 0.499999C470.205 0.499999 475.305 0.999998 479.305 2C483.372 3 486.539 4.4 488.805 6.2C491.139 8 492.739 10.1667 493.605 12.7C494.539 15.1667 495.005 17.9333 495.005 21V55.1ZM455.605 51.5C455.605 52.8333 456.105 53.9667 457.105 54.9C458.105 55.7667 460.405 56.2 464.005 56.2C467.605 56.2 469.905 55.7667 470.905 54.9C471.905 53.9667 472.405 52.8333 472.405 51.5V24.6C472.405 23.3333 471.905 22.2667 470.905 21.4C469.905 20.4667 467.605 20 464.005 20C460.405 20 458.105 20.4667 457.105 21.4C456.105 22.2667 455.605 23.3333 455.605 24.6V51.5Z" fill="#DC3545"/>
</svg>
