<svg width="500" height="500" viewBox="0 0 500 500" fill="none" xmlns="http://www.w3.org/2000/svg">
<g clip-path="url(#clip0_28_211)">
<rect width="500" height="500" rx="250" fill="#09041D"/>
<path d="M167.976 91.1786C164.504 91.3364 142.745 118.176 126.619 129.525C110.493 140.875 98.2108 145.896 98.2108 145.896L108.322 143.489C108.322 143.489 89.0621 170.452 83.766 205.121C78.4698 239.789 82.8767 266.303 99.6924 282.177C99.6924 282.177 80.0825 315.063 85.4264 309.003C87.4478 306.709 113.88 287.161 113.88 287.161C113.88 287.161 102.544 312.977 120.841 334.164C120.841 334.164 119.397 322.126 119.878 314.903C119.878 314.903 131.146 342.516 144.694 344.448C158.241 346.379 164.177 352.46 164.177 352.46L161.448 343.472L172.362 348.126L187.423 370.675L321.146 347.163L357.257 330.311V338.657C357.257 338.657 380.852 341.867 374.593 312.014C374.593 312.014 371.223 295.148 370.26 290.581C370.26 290.581 382.779 316.348 406.373 311.051C406.373 311.051 372.888 295.288 383.371 239.611L384.705 228.727C384.705 228.727 410.941 241.481 400.767 274.969C400.767 274.969 419.259 267.054 410.649 232.477C402.039 197.899 382.953 186.935 379.737 172.194C379.737 172.194 395.298 188.279 418.892 186.83C418.892 186.83 400.525 178.449 392.615 161.45C384.705 144.452 379.926 125.441 360.407 110.39C340.888 95.3387 331.489 105.45 323.188 88.5981C314.887 71.746 263.366 91.9684 263.366 91.9684C263.366 91.9684 222.921 52.4856 169.955 91.4869" fill="white"/>
<path d="M205.123 331.419C210.574 328.958 216.068 326.424 220.754 322.709C226.585 318.085 230.896 311.847 234.889 305.567C258.526 268.399 273.998 226.74 289.298 185.436C281.756 200.125 271.288 213.306 258.689 223.98C267.351 210.802 273.029 195.676 275.178 180.053C259.271 209.123 237.812 235.141 212.302 256.29C228.258 235.302 244.542 213.675 251.83 188.339C239.519 208.23 223.73 225.963 205.394 240.492C218.791 220.835 231.839 200.941 244.528 180.821C231.897 197.992 215.512 212.385 196.856 222.699C207.382 210.68 215.642 196.686 221.079 181.665C199.525 195.388 179.149 210.962 160.251 228.159C159.559 193.587 180.344 162.62 201.256 135.081C187.102 144.03 172.948 152.98 158.792 161.928C171.961 152.703 182.49 139.753 188.834 124.978C175.918 136.325 162.714 147.344 149.237 158.018C159.974 147.29 168.251 134.115 173.258 119.787C161.056 132.278 146.785 142.744 131.204 150.63C146.563 140.682 156.373 124.364 168.572 110.724C180.763 97.0914 198.324 85.2408 216.195 89.1104C208.969 82.7938 199.222 80.0118 189.484 80.1818C183.214 82.8456 176.686 86.529 169.954 91.4861L167.976 91.1778C164.504 91.3356 142.745 118.176 126.619 129.524C110.493 140.873 98.2108 145.896 98.2108 145.896L108.322 143.489C108.322 143.489 89.0621 170.452 83.766 205.121C78.4698 239.789 82.8767 266.303 99.6924 282.176C99.6924 282.176 80.0825 315.063 85.4264 309.002C87.4478 306.709 113.88 287.16 113.88 287.16C113.88 287.16 102.544 312.977 120.841 334.163C120.841 334.163 119.397 322.125 119.878 314.902C119.878 314.902 126.068 330.056 134.785 338.697C147.794 341.852 161.037 344.016 174.167 342.003C184.981 340.346 195.152 335.922 205.123 331.419Z" fill="#FF3109"/>
<mask id="mask0_28_211" style="mask-type:luminance" maskUnits="userSpaceOnUse" x="81" y="80" width="209" height="263">
<path d="M205.123 331.419C210.574 328.958 216.068 326.424 220.754 322.709C226.585 318.085 230.896 311.847 234.889 305.567C258.526 268.399 273.998 226.74 289.298 185.436C281.756 200.125 271.288 213.306 258.689 223.98C267.351 210.802 273.029 195.676 275.178 180.053C259.271 209.123 237.812 235.141 212.302 256.29C228.258 235.302 244.542 213.675 251.83 188.339C239.519 208.23 223.73 225.963 205.394 240.492C218.791 220.835 231.839 200.941 244.528 180.821C231.897 197.992 215.512 212.385 196.856 222.699C207.382 210.68 215.642 196.686 221.079 181.665C199.525 195.388 179.149 210.962 160.251 228.159C159.559 193.587 180.344 162.62 201.256 135.081C187.102 144.03 172.948 152.98 158.792 161.928C171.961 152.703 182.49 139.753 188.834 124.978C175.918 136.325 162.714 147.344 149.237 158.018C159.974 147.29 168.251 134.115 173.258 119.787C161.056 132.278 146.785 142.744 131.204 150.63C146.563 140.682 156.373 124.364 168.572 110.724C180.763 97.0914 198.324 85.2408 216.195 89.1104C208.969 82.7938 199.222 80.0118 189.484 80.1818C183.214 82.8456 176.686 86.529 169.954 91.4861L167.976 91.1778C164.504 91.3356 142.745 118.176 126.619 129.524C110.493 140.873 98.2108 145.896 98.2108 145.896L108.322 143.489C108.322 143.489 89.0621 170.452 83.766 205.121C78.4698 239.789 82.8767 266.303 99.6924 282.176C99.6924 282.176 80.0825 315.063 85.4264 309.002C87.4478 306.709 113.88 287.16 113.88 287.16C113.88 287.16 102.544 312.977 120.841 334.163C120.841 334.163 119.397 322.125 119.878 314.902C119.878 314.902 126.068 330.056 134.785 338.697C147.794 341.852 161.037 344.016 174.167 342.003C184.981 340.346 195.152 335.922 205.123 331.419Z" fill="white"/>
</mask>
<g mask="url(#mask0_28_211)">
<path d="M104.597 144.995C115.676 142.408 126.634 139.298 137.422 135.679C125.319 143.948 112.97 152.453 104.344 164.303C92.5391 180.519 88.9366 201.773 91.7664 221.63C94.0475 212.589 97.9526 203.959 103.24 196.278C93.8152 220.123 92.824 247.206 100.48 271.676C100.525 260.798 102.023 249.925 104.919 239.438C106.091 250.013 105.51 260.778 103.209 271.166C107.368 259.489 110.302 247.377 111.95 235.093C113.154 249.976 110.663 265.143 104.764 278.86C110.455 273.479 115.38 267.289 119.344 260.534C115.967 274.805 120.551 289.621 125.089 303.567C128.084 312.775 131.218 322.236 137.465 329.634C139.962 332.59 143.012 335.328 144.079 339.047C140.832 340.833 136.843 339.457 133.337 338.26C122.489 334.558 110.965 332.843 99.5087 333.229C96.5001 333.33 93.481 333.574 90.4854 333.277C85.22 332.754 80.2654 330.584 75.5551 328.172C73.7077 327.226 71.832 326.2 70.5114 324.598C66.7195 319.999 68.9756 313.186 70.9516 307.562C73.3614 300.704 75.0987 293.61 76.1296 286.414C77.0254 280.162 77.3879 273.822 77.0043 267.517C76.4104 257.744 74.037 248.173 72.7359 238.467C71.0034 225.545 71.1798 212.453 71.3586 199.417C71.4395 193.51 71.5245 187.568 72.6096 181.76C76.3181 161.916 92.6638 145.032 112.377 140.682" fill="#09041D"/>
</g>
<path d="M163.312 340.114C148.224 341.719 148.546 331.447 148.546 331.447L172.843 332.237C178.843 330.138 178.719 328.879 178.719 328.879C157.855 325.347 154.966 307.395 154.966 307.395L169.732 284.247C190.275 266.901 210.499 238.356 211.141 237.393C211.783 236.431 195.61 265.963 195.61 265.963C233.364 253.765 256.724 210.43 256.724 210.43C251.909 228.406 234.575 276.877 234.575 276.877C247.094 266.926 269.884 226.48 269.049 225.517C268.213 224.554 269.049 236.431 269.049 236.431C279.449 226.48 284.344 215.425 284.344 215.425C283.716 229.729 272.132 253.123 272.132 253.123C292.356 243.172 297.813 208.825 297.813 208.825C298.776 221.023 293.961 236.752 293.961 236.752C302.307 222.949 304.233 201.121 304.233 201.121C316.43 219.418 336.975 264.358 336.975 264.358C342.753 249.592 335.049 210.43 336.012 210.751C336.975 211.072 355.593 252.16 355.593 252.16C355.593 252.16 357.197 284.903 349.173 301.273C341.148 317.644 328.308 327.595 328.308 327.595C337.295 327.274 351.741 318.607 352.704 318.287C353.667 317.965 360.408 322.138 360.408 322.138C360.408 322.138 338.58 348.139 330.288 360.658C321.995 373.177 290.752 394.363 290.752 394.363C290.752 394.363 270.85 418.117 254.799 416.834C238.749 415.549 190.92 384.413 190.278 377.19C189.636 369.967 167.808 345.411 166.363 344.448C164.919 343.485 154.441 350.349 144.695 344.448L161.45 343.472L163.312 340.114Z" fill="#FF3109"/>
<path d="M268.272 373.517C264.578 372.607 260.476 375.856 260.513 379.659C264.691 380.419 269.079 376.685 268.997 372.44" fill="white"/>
<path d="M275.775 326.28C276.082 327.954 276.388 329.628 276.694 331.302C275.388 332.281 274.081 333.258 272.775 334.236C272.129 334.719 271.111 335.162 270.631 334.515C270.341 334.123 270.481 333.572 270.644 333.112C271.783 329.901 273.491 326.892 275.663 324.267" fill="white"/>
<path d="M350.586 319.385C346.069 321.798 335.462 327.34 328.305 327.595C328.305 327.595 341.146 317.645 349.17 301.273C357.195 284.903 355.59 252.16 355.59 252.16C355.59 252.16 336.973 211.072 336.01 210.751C335.047 210.43 342.751 249.592 336.973 264.358C336.973 264.358 335.92 262.056 334.154 258.29C334.789 266.363 335.047 274.466 334.904 282.562C334.822 287.237 334.559 292.104 332.299 296.197C328.614 302.873 320.713 305.782 313.469 308.164C321.99 325.969 321.871 347.675 313.155 365.385C306.574 378.756 295.691 389.434 285.015 399.833C285.631 399.42 286.249 399.006 286.865 398.594C289.293 396.097 290.748 394.363 290.748 394.363C290.748 394.363 321.992 373.177 330.285 360.658C333.855 355.268 339.934 347.38 345.7 340.143C347.363 333.231 349.001 326.314 350.586 319.385Z" fill="white"/>
<path d="M183.275 290.828C181.562 283.788 180.707 264.827 203.819 258.086C226.931 251.345 230.462 267.716 231.104 274.457C231.746 281.198 232.072 305.594 208.634 306.236C185.195 306.879 184.063 294.063 183.275 290.828Z" fill="white"/>
<path d="M293.167 291.326C291.486 284.513 290.647 266.163 313.328 259.64C336.01 253.116 339.475 268.959 340.105 275.483C340.735 282.006 341.055 305.615 318.054 306.237C295.053 306.858 293.939 294.456 293.167 291.326Z" fill="white"/>
<path d="M225.326 282.46C225.326 293.844 217.422 303.073 207.671 303.073C197.921 303.073 190.016 293.844 190.016 282.46C190.016 271.077 198.005 263.126 207.671 261.848C218.562 260.408 225.326 271.076 225.326 282.46Z" fill="#FF3109"/>
<path d="M207.671 295.161C214.053 295.161 219.227 289.233 219.227 281.92C219.227 274.606 214.053 268.678 207.671 268.678C201.289 268.678 196.115 274.606 196.115 281.92C196.115 289.233 201.289 295.161 207.671 295.161Z" stroke="#09041D" stroke-width="2.26783" stroke-miterlimit="10"/>
<path d="M208.446 303.073C218.8 303.073 227.195 293.455 227.195 281.59C227.195 269.725 218.8 260.107 208.446 260.107C198.091 260.107 189.697 269.725 189.697 281.59C189.697 293.455 198.091 303.073 208.446 303.073Z" stroke="#09041D" stroke-width="3.67946" stroke-miterlimit="10"/>
<path d="M332.275 282.46C332.275 293.844 324.759 303.073 315.487 303.073C306.215 303.073 298.699 293.844 298.699 282.46C298.699 271.077 306.295 263.126 315.487 261.848C325.843 260.408 332.275 271.076 332.275 282.46Z" fill="#FF3109"/>
<path d="M315.527 296.044C321.91 296.044 327.084 290.116 327.084 282.803C327.084 275.489 321.91 269.561 315.527 269.561C309.145 269.561 303.971 275.489 303.971 282.803C303.971 290.116 309.145 296.044 315.527 296.044Z" stroke="#09041D" stroke-width="2.26783" stroke-miterlimit="10"/>
<path d="M207.671 290.581C212.192 290.581 215.857 286.916 215.857 282.395C215.857 277.874 212.192 274.209 207.671 274.209C203.15 274.209 199.486 277.874 199.486 282.395C199.486 286.916 203.15 290.581 207.671 290.581Z" fill="#09041D"/>
<path d="M199.486 278.346C201.77 278.346 203.622 276.493 203.622 274.209C203.622 271.925 201.77 270.073 199.486 270.073C197.201 270.073 195.349 271.925 195.349 274.209C195.349 276.493 197.201 278.346 199.486 278.346Z" fill="white"/>
<path d="M222.696 289.864C222.696 291.752 221.165 293.283 219.277 293.283C217.388 293.283 215.857 291.752 215.857 289.864C215.857 287.975 217.388 286.444 219.277 286.444C221.165 286.444 222.696 287.975 222.696 289.864Z" fill="white"/>
<path d="M315.001 291.298C319.522 291.298 323.187 287.633 323.187 283.112C323.187 278.591 319.522 274.926 315.001 274.926C310.48 274.926 306.816 278.591 306.816 283.112C306.816 287.633 310.48 291.298 315.001 291.298Z" fill="#09041D"/>
<path d="M306.816 279.063C309.1 279.063 310.952 277.21 310.952 274.926C310.952 272.642 309.1 270.789 306.816 270.789C304.531 270.789 302.679 272.642 302.679 274.926C302.679 277.21 304.531 279.063 306.816 279.063Z" fill="white"/>
<path d="M330.026 290.581C330.026 292.469 328.495 294 326.607 294C324.718 294 323.187 292.469 323.187 290.581C323.187 288.692 324.718 287.161 326.607 287.161C328.495 287.161 330.026 288.692 330.026 290.581Z" fill="white"/>
<path d="M291.778 394.237C291.778 394.237 288.047 443.243 298.698 456.234C309.348 469.224 323.187 493.986 323.187 501.387C323.187 508.788 330.026 523.66 330.026 523.66C330.026 523.66 278.788 550.117 268.789 548.672C258.791 547.228 234.235 541.992 234.235 541.992C234.235 541.992 233.031 511.821 225.327 505.329C217.623 498.837 180.621 471.926 182.51 466.964C184.4 462.002 190.017 443.221 190.017 443.221L215.858 425.224L254.798 416.834L267.491 413.709L291.778 394.237Z" fill="#FF3109"/>
<path d="M275.055 491.087C286.685 500.057 298.583 508.68 310.728 516.939C312.813 518.357 315.203 519.831 317.679 519.355C322.575 518.413 322.963 511.607 322.14 506.688C321.358 502.018 320.542 497.244 318.25 493.1C316.622 490.154 314.315 487.652 312.262 484.986C306.17 477.074 302.355 467.749 300.088 457.977C299.62 457.378 299.155 456.79 298.698 456.233C289.26 444.721 291.115 404.937 291.66 396.024C285.901 399.947 280.628 404.586 276.016 409.811L278.377 407.936C266.47 417.751 254.263 427.203 241.778 436.269C249.627 432.937 257.476 429.605 265.325 426.273C264.394 440.726 264.033 455.215 264.243 469.696C264.303 473.83 264.446 478.113 266.27 481.823C268.165 485.677 271.653 488.464 275.055 491.087Z" fill="white"/>
<path d="M186.842 427.631C186.842 427.631 191.658 445.562 194.221 448.861C196.784 452.16 217.622 475.105 230.177 483.227C242.733 491.349 256.828 499.768 257.149 502.483C257.47 505.199 246.512 549.233 244.587 549.554C242.661 549.876 304.614 524.838 304.614 524.838L323.187 508.787C323.187 508.787 308.145 479.255 308.787 476.366C309.429 473.478 337.676 464.169 337.676 464.169L365.603 467.057C365.603 467.057 369.214 477.841 360.025 497.487L348.911 528.689C348.911 528.689 343.775 549.554 338.318 553.086C332.861 556.617 229.178 564 229.178 564C229.178 564 144.754 546.993 134.483 549.558C124.211 552.123 89.864 550.518 91.4686 547.308C93.0732 544.098 108.758 511.339 108.758 511.339L148.955 477.887L161.715 469.074L168.686 473.704C168.688 473.704 176.606 429.936 186.842 427.631Z" fill="white"/>
<mask id="mask1_28_211" style="mask-type:luminance" maskUnits="userSpaceOnUse" x="91" y="427" width="276" height="137">
<path d="M186.842 427.631C186.842 427.631 191.658 445.562 194.221 448.861C196.784 452.16 217.622 475.105 230.177 483.227C242.733 491.349 256.828 499.768 257.149 502.483C257.47 505.199 246.512 549.233 244.587 549.554C242.661 549.876 304.614 524.838 304.614 524.838L323.187 508.787C323.187 508.787 308.145 479.255 308.787 476.366C309.429 473.478 337.676 464.169 337.676 464.169L365.603 467.057C365.603 467.057 369.214 477.841 360.025 497.487L348.911 528.689C348.911 528.689 343.775 549.554 338.318 553.086C332.861 556.617 229.178 564 229.178 564C229.178 564 144.754 546.993 134.483 549.558C124.211 552.123 89.864 550.518 91.4686 547.308C93.0732 544.098 108.758 511.339 108.758 511.339L148.955 477.887L161.715 469.074L168.686 473.704C168.688 473.704 176.606 429.936 186.842 427.631Z" fill="white"/>
</mask>
<g mask="url(#mask1_28_211)">
<path d="M226.493 478.032C220.164 474.11 211.427 476.506 206.098 481.705C200.768 486.905 198.146 494.233 196.133 501.402C194.483 507.28 191.047 514.732 185.017 513.783C179.046 512.842 177.621 504.394 172.367 501.408C168.627 499.282 163.781 500.498 160.216 502.904C156.65 505.309 153.918 508.741 150.669 511.56C139.388 521.346 121.503 522.527 109.033 514.308C118.173 493.328 141.581 481.782 152.438 461.637C156.629 453.86 158.746 445.146 162.331 437.072C165.916 428.998 171.512 421.152 179.807 418.113C183.316 416.827 187.291 416.503 190.772 417.865C193.838 419.065 196.273 421.445 198.505 423.865C211.952 438.448 221.243 456.821 225.016 476.295" fill="#FF3109"/>
</g>
<path d="M345.624 501.87C348.088 494.37 350.509 487.248 352.748 480.071C353.706 476.998 355.03 474.216 357.086 471.727C359.025 469.382 361.519 468.658 364.735 468.537C364.635 479.017 362.027 488.8 359.001 498.897C359.493 498.224 359.795 497.877 360.025 497.488C365.765 487.815 367.896 477.304 367.197 466.164C367.053 463.866 365.722 462.159 363.827 460.962C351.323 453.063 339.114 444.706 325.827 438.068C315.681 432.998 305.804 427.387 295.852 421.936C293.576 420.69 291.816 418.827 291.795 416.003C291.743 408.939 291.778 401.875 291.778 394.238C292.311 393.739 293.246 392.691 294.345 391.862C300.655 387.1 306.998 382.379 313.343 377.663C319.532 373.064 325.408 368.141 329.922 361.793C329.977 361.716 330.234 361.783 330.462 361.783C331.01 364.099 330.792 366.845 333.747 368.68C333.747 366.648 333.858 365.155 333.72 363.684C333.544 361.82 335.031 361.021 335.903 359.817C336.003 359.678 335.985 359.458 336.041 359.281C337.629 354.215 342.174 351.551 345.102 347.573C345.279 347.663 345.456 347.755 345.634 347.845C344.75 350.844 343.864 353.842 342.98 356.84C343.188 356.912 343.395 356.985 343.603 357.057C344.018 356.267 344.398 355.457 344.854 354.691C347.37 350.455 349.837 346.187 352.481 342.032C353.13 341.012 354.256 340.087 355.373 339.608C359.511 337.833 362.28 334.826 364.511 330.977C366.783 327.057 367.513 323.264 366.36 318.759C364.913 313.107 363.954 307.305 363.171 301.516C362.646 297.636 362.791 293.666 362.637 289.736C358.534 309.446 346.704 321.632 327.249 326.56C329.526 326.56 331.772 326.56 334.019 326.56C334.049 326.665 334.079 326.769 334.108 326.874C332.496 327.489 330.884 328.104 329.272 328.718C329.309 328.794 329.346 328.869 329.382 328.944C330.19 328.863 330.997 328.782 331.805 328.7C331.828 328.854 331.85 329.007 331.872 329.16C330.464 329.754 329.056 330.347 327.525 330.993C328.193 331.191 328.665 331.331 329.254 331.506C328.809 332.027 328.529 332.353 328.465 332.427C331.382 331.873 334.447 331.29 337.513 330.708C337.544 330.812 337.575 330.916 337.605 331.019C335.665 332.403 333.724 333.787 331.785 335.171C331.897 335.323 332.01 335.475 332.122 335.627C333.808 334.999 335.493 334.369 337.51 333.617C337.281 334.689 337.176 335.404 336.973 336.091C335.768 340.19 334.533 344.281 333.323 348.379C331.542 354.41 328.995 359.996 324.911 364.91C321.795 368.659 317.681 370.999 313.891 373.828C298.314 385.458 282.704 397.045 267.257 408.844C264.266 411.129 260.967 411.776 257.553 412.418C256.62 412.593 255.529 412.248 254.575 411.94C242.12 407.93 230.571 401.94 219.048 395.846C208.829 390.441 200.296 383.073 193.061 374.203C188.01 368.009 183.378 361.472 178.575 355.075C178.354 354.781 178.303 354.359 177.964 353.418C181.731 355.56 184.947 357.387 188.162 359.215C188.274 359.029 188.387 358.843 188.499 358.657C183.363 355.181 178.228 351.706 173.092 348.231C173.215 348.021 173.339 347.811 173.462 347.602C177.031 348.95 180.602 350.299 184.171 351.647C184.212 351.517 184.254 351.386 184.296 351.257C183.397 350.699 182.498 350.141 181.332 349.418C183.06 348.613 184.472 347.955 186.26 347.122C183.073 346.693 180.35 346.327 177.627 345.961C177.637 345.795 177.646 345.629 177.655 345.463C179.415 345.368 181.175 345.274 182.935 345.178C182.94 344.954 182.946 344.731 182.951 344.507C179.764 344.213 176.577 343.92 173.39 343.626C173.401 343.457 173.411 343.287 173.421 343.118C175.343 342.479 177.267 341.84 179.19 341.2C179.144 340.923 179.099 340.645 179.054 340.368C176.88 340.368 174.707 340.368 172.534 340.368C172.544 340.226 172.553 340.084 172.563 339.944C176.298 338.648 180.032 337.353 183.766 336.058C181.497 335.216 179.18 337.044 177.29 334.872C163.083 338.056 155.153 336.65 151.341 333.309C151.77 333.192 152.163 333.084 152.599 332.965C151.536 332.046 150.526 331.171 149.683 330.442C154.37 331.511 159.058 332.998 163.853 333.566C169.653 334.253 175.745 332.603 177.998 330.579C176.777 330.8 175.594 331.022 174.407 331.227C165.615 332.751 157.091 331.955 149.18 327.66C143.868 324.776 138.759 321.492 136.53 315.936C135.793 315.299 135.251 314.996 134.946 314.537C133.801 312.807 132.728 311.03 131.63 309.268C132.762 315.642 134.046 321.943 138.046 327.327C139.208 328.889 139.995 330.729 140.954 332.441C140.652 332.598 140.349 332.755 140.047 332.912C126.078 324.751 120.518 312.002 120.319 296.149C118.597 302.076 116.409 307.881 116.355 314.215C116.302 320.508 117.94 326.483 119.641 332.502C118.78 331.761 118.169 330.955 117.687 330.079C109.205 314.681 108.816 298.92 115.519 282.808C116.645 280.101 117.478 277.272 118.446 274.499C116.31 276.387 114.615 278.463 112.785 280.414C110.964 282.355 109.009 284.169 107.112 286.039C108.6 283.807 110.127 281.599 111.561 279.331C112.229 278.275 112.718 277.106 113.288 275.988C113.118 275.905 112.948 275.822 112.778 275.739C108.446 281.624 104.115 287.507 99.7838 293.392C94.9651 300.002 88.6421 304.996 82.1022 309.798C87.6015 308.694 92.7293 306.669 97.315 303.568C101.859 300.496 106.139 297.036 110.802 293.548C109.138 301.729 109.151 309.757 111.125 317.73C113.122 325.798 117.308 332.519 123.694 337.959C120.942 333.718 121.346 328.869 120.698 324.191C122.3 326.314 123.615 328.528 124.874 330.775C128.496 337.234 133.283 342.55 139.72 346.352C142.6 348.053 145.348 349.986 148.102 351.89C151.194 354.029 154.015 356.429 155.1 360.266C155.118 360.33 155.39 360.321 156.141 360.443C155.482 356.662 154.856 353.074 154.182 349.213C159.291 353.059 163.893 357.543 171.029 358.003C168.45 354.54 166.155 351.457 163.584 348.004C164.409 348.126 164.712 348.083 164.899 348.211C169.635 351.449 174.829 354.164 177.751 359.478C178.062 360.043 178.464 360.587 178.925 361.037C182.066 364.104 182.875 367.98 183.151 372.179C184.205 388.238 185.375 404.29 186.513 420.344C186.655 422.352 186.857 424.357 187.024 426.278C183.651 427.533 183.246 427.886 181.574 431.009C181.135 431.829 180.706 432.658 180.335 433.51C175.348 444.956 170.865 456.58 167.95 468.755C167.744 469.617 167.447 470.458 167.167 471.392C166.692 471.187 166.41 471.129 166.209 470.969C162.959 468.384 162.197 468.318 158.893 470.66C155.552 473.028 152.178 475.361 148.958 477.886C129.687 492.999 110.756 508.511 93.4705 525.919C92.646 526.749 91.8222 527.581 90.9985 528.412C92.086 528.038 92.9429 527.391 93.7594 526.697C103.691 518.262 113.556 509.745 123.562 501.398C135.136 491.742 146.445 481.736 159.144 473.512C160.225 472.812 161.352 472.186 162.518 471.489C164.005 472.337 165.352 473.105 166.842 473.953C165.119 482.798 167.956 490.749 171.351 498.591C171.832 499.701 172.344 500.797 172.867 501.889C178.328 513.288 185.343 523.716 193.354 533.421C197.539 538.49 202.492 542.928 207.153 547.596C207.913 548.358 208.962 548.831 209.877 549.437C208.288 547.45 206.373 545.95 204.733 544.194C203.043 542.385 201.744 540.211 200.059 538.396C193.64 531.483 188.009 523.998 182.984 516.012C177.417 507.164 172.139 498.217 169.235 488.061C167.871 483.29 167.776 478.537 168.69 473.703C170.809 462.504 174.627 451.798 178.418 441.113C179.92 436.88 182.607 433.063 184.834 429.1C185.131 428.57 185.897 428.302 186.845 427.63C187.19 429.073 187.435 430.016 187.64 430.968C188.988 437.241 189.136 443.94 194.224 448.86C195.216 449.818 195.967 451.032 196.787 452.159C206.734 465.836 219.231 476.627 233.646 485.403C240.708 489.702 247.384 494.64 254.172 499.377C255.326 500.182 256.167 501.435 257.152 502.481C256.911 502.531 256.669 502.58 256.427 502.629C253.831 511.836 251.236 521.042 248.641 530.248C248.341 528.009 248.356 525.794 248.588 523.602C249.159 518.226 248.572 513.003 246.563 507.993C245.602 505.598 244.324 503.342 241.636 501.479C240.413 502.621 239.048 503.567 238.136 504.839C237.233 506.096 236.645 507.635 236.161 509.129C232.783 519.568 229.465 530.027 226.139 540.483C225.909 541.208 225.768 541.96 225.585 542.7C225.72 542.737 225.854 542.775 225.988 542.812C227.597 538.389 229.206 533.966 230.769 529.667C238.277 529.612 241.139 531.751 242.638 538.396C243.026 540.114 243.113 541.899 243.468 543.628C243.569 544.117 243.739 544.593 243.953 545.135C243.731 545.231 243.515 545.325 243.327 545.407C242.42 545.808 241.913 546.06 241.913 546.06C242.701 546.004 243.467 545.913 244.222 545.805C244.366 546.161 244.519 546.545 244.682 546.984C244.856 546.515 245.018 546.078 245.174 545.656C248.938 545.012 252.213 543.817 254.613 542.67C256.156 541.936 257.36 541.237 258.175 540.72C258.991 540.203 259.424 539.88 259.424 539.88C255.151 540.904 251.31 542.23 248.274 543.386C250.335 530.239 255.63 518.147 257.475 505.196C257.948 501.873 257.69 500.269 254.853 498.231C250.999 495.462 247.118 492.729 243.184 490.076C229.949 481.149 217.524 471.245 206.451 459.711C203.637 456.779 200.958 453.716 198.046 450.527C203.901 447.104 209.461 443.852 215.3 440.438C219.623 451.195 223.595 461.608 229.536 471.067C225.165 460.734 220.796 450.4 216.347 439.881C224.501 435.081 232.072 430.264 240.556 427.227C240.649 427.39 240.742 427.553 240.834 427.716C239.116 429.081 237.398 430.446 235.68 431.81C235.753 431.927 235.826 432.043 235.9 432.16C236.682 431.735 237.464 431.309 238.247 430.884C234.904 433.259 232.153 435.315 230.142 436.867C227.607 438.817 226.212 439.957 226.212 439.957C233.525 435.341 240.519 430.926 246.867 426.919C246.675 427.294 246.453 427.728 246.089 428.44C249.885 426.142 253.09 423.715 257.534 423.509C253.257 426.205 249.355 428.78 245.949 431.1C236.89 437.27 231.301 441.611 231.301 441.611C245.235 433.395 257.732 425.42 266.776 419.509C275.817 413.597 281.379 409.718 281.379 409.718C281.175 409.824 280.974 409.933 280.771 410.04C282.742 408.768 284.713 407.497 286.685 406.225C286.63 406.115 286.574 406.005 286.517 405.894C284.557 406.838 282.598 407.782 280.638 408.726C280.548 408.522 280.457 408.318 280.366 408.113C283.358 406.226 286.35 404.339 289.9 402.1C289.751 404.659 289.66 406.408 289.546 408.155C288.739 420.519 288.158 432.878 289.879 445.221C291.058 453.69 292.291 462.106 294.488 470.433C296.634 478.561 300.694 484.962 307.08 490.238C312.973 495.105 317.183 501.365 320.796 508.049C322.756 511.675 323.724 515.523 323.326 519.606C322.551 527.568 321.549 535.508 320.798 543.471C320.371 547.989 320.255 552.538 319.964 557.688C321.065 555.979 321.851 554.949 322.432 553.815C323.599 551.535 325.001 549.428 325.298 546.691C326.569 535.006 331.02 524.446 337.182 514.543C338.149 512.99 339.139 511.45 340.17 509.822C334.016 505.706 327.651 502.277 322.617 496.214C329.254 500.126 335.355 503.721 341.456 507.317C341.654 507.139 341.852 506.962 342.049 506.784C341.71 506.149 341.517 505.339 341.005 504.914C339.438 503.61 337.809 502.359 336.095 501.26C329.853 497.254 324.397 492.384 319.727 486.63C319.327 486.137 319.076 485.525 318.755 484.967C318.849 484.926 318.942 484.886 319.036 484.844C321.834 487.081 324.632 489.317 327.431 491.554C327.538 491.456 327.647 491.359 327.754 491.261C327.483 490.766 327.212 490.271 326.942 489.775C327.034 489.665 327.126 489.556 327.219 489.446C333.303 493.558 339.391 497.665 345.624 501.87ZM247.119 543.832C246.582 544.042 246.092 544.241 245.624 544.434C246.084 543.191 246.483 542.116 246.88 541.043C247.089 541.077 247.299 541.111 247.509 541.145C247.704 541.826 247.904 542.517 248.166 543.429C247.808 543.565 247.454 543.701 247.119 543.832Z" fill="#09041D"/>
<path d="M158.89 470.661C156.082 472.875 153.19 474.977 150.437 477.24L142.168 484.045C136.661 488.59 131.138 493.111 125.677 497.702C120.195 502.269 114.777 506.908 109.407 511.607C104.051 516.319 98.7287 521.077 93.4681 525.92C98.2828 520.633 103.331 515.554 108.559 510.671C111.155 508.21 113.831 505.835 116.496 503.45C119.188 501.094 121.901 498.765 124.638 496.463C130.133 491.884 135.711 487.409 141.385 483.06C144.223 480.883 147.066 478.731 149.959 476.613C152.892 474.548 155.871 472.577 158.89 470.661Z" fill="white"/>
<path d="M131.574 309.048C131.569 309.083 131.563 309.119 131.558 309.153C131.582 309.191 131.605 309.229 131.629 309.267C131.62 309.215 131.61 309.164 131.6 309.111C131.591 309.09 131.583 309.068 131.574 309.048Z" fill="#09041D"/>
<path d="M253.817 209.745C253.322 210.497 252.861 211.274 252.326 211.995C248.283 217.445 244.378 223.009 240.104 228.273C238.052 230.799 236.05 233.627 234.287 234.285H217.257C220.198 228.557 222.805 223.452 225.439 218.362C228.093 213.233 231.085 208.262 232.801 202.688C232.045 203.418 231.616 204.574 230.81 204.979C227.547 206.616 226.51 209.921 224.718 212.648C220.375 219.257 216.037 225.87 211.814 232.554C210.36 234.857 208.448 236.04 205.805 236.542C199.57 237.727 193.573 239.649 187.96 242.713C185.314 244.157 182.519 245.328 179.792 246.622C179.661 246.49 179.532 246.358 179.402 246.227L186.28 232.615C186.109 232.531 185.939 232.447 185.769 232.363C184.678 234.396 183.414 236.357 182.529 238.476C181.626 240.64 180.555 242.645 179.304 244.487C182.5 236.957 185.573 229.373 188.15 221.609C184.622 230.766 180.411 239.601 176.115 248.411C174.02 250.569 171.566 252.404 168.715 253.892C167.98 254.275 167.324 254.825 166.68 255.357C166.368 255.616 166.169 256.01 165.918 256.344C166.012 256.502 166.106 256.659 166.2 256.817L173.185 254.311C172.955 254.816 172.729 255.319 172.5 255.824C171.158 258.579 169.822 261.337 168.515 264.114C165.181 271.192 162.008 278.378 159.336 285.799C157.442 291.06 155.811 296.448 154.567 301.947C154.373 301.258 154.191 300.566 154.006 299.875C153.691 297.512 153.33 295.144 153.287 292.774C153.003 276.787 155.252 261.041 158.059 245.362C158.971 240.269 160.117 235.218 161.155 230.146C160.966 230.106 160.776 230.065 160.587 230.024C159.292 235.915 157.839 241.777 156.748 247.706C155.655 253.648 154.795 259.641 154.069 265.641C153.36 271.502 152.951 277.398 152.41 283.279L151.843 283.223C150.978 273.569 150.963 263.934 152.427 254.31C152.664 252.758 152.46 251.137 152.46 249.547C150.501 256.939 149.275 264.331 148.817 271.721C147.21 255.998 147.662 240.007 150.257 224.302C144.781 249.162 144.674 275.326 149.988 300.513C146.07 291.244 140.908 272.608 138.596 259.106C138.466 259.899 138.336 260.691 138.207 261.482C137.572 258.295 137.249 255.151 137.17 252.002C136.838 238.736 138.837 225.646 140.859 212.625C142.681 200.89 147.059 189.845 152.727 179.38C153.814 177.374 155.279 175.574 156.569 173.679C154.724 175.189 153.065 176.864 151.896 178.831C146.091 188.599 142.09 199.089 140.113 210.283C139.404 214.298 139.41 218.435 138.798 222.471C137.798 229.069 136.865 235.667 136.379 242.296C135.853 238.956 135.509 235.655 135.327 232.429C135.06 227.968 135.247 223.649 135.556 219.55C135.659 218.527 135.762 217.516 135.863 216.517C135.961 215.519 136.146 214.544 136.276 213.577C136.517 211.637 136.946 209.786 137.278 207.979C137.45 207.076 137.699 206.206 137.897 205.341C138.118 204.481 138.284 203.623 138.536 202.805C138.776 201.984 139.011 201.18 139.242 200.392C139.356 199.997 139.469 199.607 139.581 199.221C139.711 198.84 139.84 198.465 139.967 198.094C140.949 195.108 141.999 192.454 142.998 190.15C143.516 189.005 143.999 187.938 144.444 186.956C144.933 185.994 145.382 185.113 145.785 184.322C145.986 183.925 146.177 183.55 146.356 183.198C146.552 182.855 146.735 182.534 146.905 182.237C147.244 181.639 147.532 181.133 147.764 180.724C148.225 179.901 148.468 179.468 148.468 179.468C145.753 183.145 143.411 187.045 141.447 191.018C139.507 195.006 138.022 199.082 136.824 203.064C134.581 211.078 133.7 218.748 133.822 225.222C133.92 231.702 134.732 236.983 135.589 240.57C135.685 241.02 135.777 241.446 135.863 241.846C135.97 242.242 136.07 242.613 136.163 242.957C136.213 243.133 136.254 243.283 136.299 243.445C135.971 248.464 135.908 253.502 136.284 258.572C136.364 259.653 136.294 260.746 136.294 261.786C128.446 263.544 125.116 269.64 127.605 278.046C127.692 276.256 127.591 274.854 127.863 273.529C128.268 271.553 128.623 269.462 129.565 267.726C131.085 264.926 133.95 263.976 136.555 264.898C137.665 270.424 138.775 275.95 139.881 281.451C134.924 284.084 133.365 288.591 135.938 292.672C136.091 286.217 137.247 283.481 140.31 282.557C143.572 292.755 146.555 303.062 151.939 313.195C149.691 313.028 148.116 313.108 146.635 312.769C137.649 310.71 131.175 305.637 127.158 297.163C124.031 290.568 122.837 283.53 121.429 276.527C119.961 269.228 120.926 262.043 123.504 255.121C125.289 250.328 128.337 246.743 133.864 246.135C133.98 246.122 134.07 245.878 134.391 245.448C131.248 244.83 128.822 245.927 126.671 247.754C124.27 249.793 122.713 252.434 121.785 255.429C119.349 263.288 118.657 271.201 120.379 279.364C122.174 287.875 124.144 296.246 129.038 303.643C130.124 305.285 130.746 307.235 131.574 309.047C131.643 308.562 131.716 308.056 131.837 307.205C133.529 309.017 134.864 310.674 136.426 312.079C141.108 316.288 146.58 318.471 152.953 318.471C154.627 318.471 156.487 318.846 157.934 319.643C160.43 321.017 162.602 322.968 165.033 324.478C168.575 326.679 172.485 327.931 176.688 328.251C168.99 329.897 161.72 328.823 154.848 325.044C162.129 331.869 174.025 332.739 182.324 327.408C178.007 326.178 173.528 325.103 169.191 323.614C163.868 321.785 160.035 318.062 157.252 313.202C156.489 311.869 156.362 310.64 156.969 309.267L157.624 309.357C157.698 308.704 157.786 308.053 157.872 307.401C159.533 304.003 161.065 300.536 162.942 297.264C167.986 288.465 173.233 279.783 178.413 271.062C179.933 268.503 181.416 265.913 183.082 263.45C184.085 261.966 185.199 260.315 187.498 261.007C189.061 258.342 192.031 258.105 194.474 256.886C192.268 262.857 187.215 266.224 182.771 270.132C183.295 269.166 183.845 268.214 184.336 267.231C185.232 265.441 186.093 263.632 186.968 261.831C184.744 265.221 182.498 268.599 180.318 272.019C180.005 272.509 180.008 273.201 179.865 273.8C179.342 275.084 178.951 276.443 178.273 277.639C176.316 281.09 176.211 284.887 175.638 289.173C176.741 287.872 177.45 287.023 178.174 286.187C178.906 285.343 179.652 284.513 180.392 283.677C180.538 283.788 180.685 283.897 180.831 284.007V290.191C181.969 293.042 182.735 294.963 183.501 296.883L183.801 296.834C183.744 295.988 183.686 295.142 183.586 293.662C184.834 295.701 185.745 297.192 186.823 298.954C186.282 296.586 185.594 294.638 185.428 292.647C184.885 286.169 185.137 279.767 188.795 274.051C189.537 272.889 190.682 271.985 191.641 270.963C191.867 271.112 192.095 271.262 192.321 271.413C192.068 272.354 191.849 273.307 191.557 274.237C189.53 280.702 188.967 287.173 191.382 293.68C193.191 298.551 196.022 302.129 201.454 303.532C204.572 304.338 207.235 303.599 209.83 302.625H209.435V302.082C202.76 303.469 195.39 299.317 193.392 292.703C191.106 285.136 192.488 277.972 195.681 271.022C196.103 270.102 197.079 269.302 197.986 268.763C201.5 266.677 205.126 264.781 208.632 262.682C209.956 261.889 211.144 261.718 212.582 262.214C215.471 263.208 217.762 264.793 219.466 266.993H222.007C220.122 263.953 217.405 261.648 213.655 260.164C217.721 259.529 220.943 260.886 223.773 263.371C225.614 264.988 227.426 266.641 229.252 268.278C229.422 268.105 229.593 267.931 229.764 267.758C228.28 261.608 223.315 258.625 217.782 255.778C219.197 254.589 220.302 253.66 221.533 252.625C223.209 253.48 224.721 254.251 226.234 255.023C226.384 254.846 226.534 254.669 226.684 254.491C225.415 253.479 224.146 252.469 222.613 251.247C225.761 248.477 228.617 245.964 231.474 243.45C231.361 243.387 231.248 243.324 231.135 243.261C232.758 242.795 234.381 242.329 235.684 241.954C236.491 239.446 235.938 237.093 237.731 235.115C238.432 237.533 236.926 239.708 238.553 241.812C240.003 239.802 240.14 237.8 239.535 235.806C238.981 233.98 239.554 232.721 240.613 231.227C244.808 225.315 248.84 219.289 252.871 213.263C253.53 212.279 253.883 211.091 254.376 209.997C254.191 209.913 254.004 209.829 253.817 209.745ZM177.18 285.066C178.279 283.018 179.378 280.97 180.678 278.549C181.035 281.095 180.484 282.148 177.18 285.066ZM185.043 258.118C181.327 261.378 176.815 265.336 172.303 269.292C172.429 269.428 172.554 269.564 172.679 269.7C173.986 268.809 175.292 267.918 176.599 267.028C176.756 267.182 176.913 267.336 177.071 267.49C176.65 268.38 176.297 269.31 175.797 270.154C172.525 275.678 169.219 281.18 165.93 286.695C163.855 290.174 161.665 293.593 159.728 297.146C160.513 293.69 161.439 290.255 162.486 286.85C164.758 279.46 167.557 272.203 170.539 265.01C172.025 261.423 173.559 257.848 175.102 254.273C175.967 253.047 177.045 252.164 178.556 251.667C184.555 249.694 190.534 247.659 196.56 245.771C198.555 245.145 200.667 244.895 202.726 244.472C202.876 244.675 203.026 244.876 203.175 245.078C201.605 247.319 200.491 250.255 198.367 251.647C194.543 254.151 190.113 255.731 185.043 258.118ZM198.959 267.079C198.771 266.794 198.583 266.509 198.395 266.225C200.534 263.63 203.411 262.312 206.606 261.541C206.751 261.787 206.895 262.033 207.04 262.279C204.346 263.878 201.652 265.478 198.959 267.079ZM214.171 254.996C209.391 254.311 204.438 255.716 199.526 257.396C199.368 257.155 199.21 256.915 199.051 256.674C200.012 255.684 200.803 254.367 201.965 253.767C205.205 252.096 212.763 251.425 216.647 252.157C216.827 252.395 217.009 252.634 217.189 252.872C216.308 253.491 215.427 254.111 214.171 254.996ZM219.975 249.767H204.276C206.107 247.675 207.778 245.765 209.87 243.375H225.966C223.727 245.764 221.724 247.901 219.975 249.767Z" fill="#09041D"/>
<path d="M199.714 256.591C192.913 265.049 182.896 270.854 172.176 272.547C176.733 272.736 181.325 272.033 185.617 270.489C180.221 275.034 173.97 278.561 167.29 280.83C173.41 280.758 179.499 278.927 184.643 275.611C181.684 279.297 178.724 282.985 175.766 286.671C177.714 284.821 179.493 282.8 181.268 280.783C188.169 272.941 195.07 265.099 201.971 257.258C200.827 257.3 199.675 257.121 198.599 256.732" fill="#09041D"/>
<path d="M308.034 261.8C313.354 257.559 320.846 257.526 327.589 258.43C334.332 259.334 341.23 260.964 347.842 259.356C344.112 261.183 340.063 262.355 335.934 262.805C339.076 264.015 341.293 266.982 342.338 270.183C343.384 273.382 343.409 276.819 343.266 280.183C342.939 277.134 341.272 274.393 339.387 271.973C335.554 267.051 330.546 262.923 324.682 260.795C318.817 258.667 312.062 258.68 306.493 261.493" fill="#09041D"/>
<path d="M351.347 299.423C356.542 290.122 358.012 280.024 357.919 269.515C358.346 271.082 358.773 272.648 359.199 274.215C359.437 274.155 359.675 274.095 359.912 274.035C358.478 266.952 357.044 259.87 355.593 252.702C356.018 252.55 356.457 252.393 356.441 252.4C355.592 250.996 354.592 249.712 353.976 248.263C350.955 241.162 348.317 233.885 345.019 226.918C339.489 215.233 333.2 203.904 328.699 191.74C328.384 190.889 327.903 190.1 327.5 189.281C327.329 189.369 327.16 189.456 326.989 189.544C329.382 197.984 332.14 206.343 334.068 214.89C336.003 223.464 336.716 232.265 337.205 241.413C333.109 240.404 329.448 239.503 326.131 238.686C317.342 222.586 308.759 206.86 300.175 191.135C300.112 191.157 300.048 191.18 299.985 191.203C300.18 191.721 300.354 192.25 300.542 192.773C300.133 192.188 299.887 191.891 299.887 191.891C301.821 195.128 302.901 198.73 303.124 202.254C303.353 205.789 302.758 209.225 301.916 212.44C301.06 215.658 299.982 218.708 298.934 221.557C298.358 223.107 297.776 224.59 297.195 226.014C298.235 221.898 298.549 218.022 298.42 214.783C298.297 211.472 297.826 208.816 297.365 207.022C297.306 206.749 297.242 206.502 297.178 206.269C297.242 205.619 297.3 204.97 297.347 204.324C297.251 204.833 297.155 205.339 297.057 205.842C296.953 205.496 296.857 205.204 296.792 204.967C296.647 204.502 296.571 204.256 296.571 204.256C296.681 205.184 296.756 206.097 296.828 207.009C293.649 223.072 289.469 236.18 274.457 251.327C286.861 242.813 294.765 225.395 296.929 208.451C296.983 209.361 297.033 210.268 297.054 211.158C297.092 213.402 296.992 215.577 296.842 217.657C296.463 221.81 295.781 225.582 294.917 228.725C294.221 231.281 293.49 233.435 292.845 235.088C292.601 235.142 292.355 235.196 292.111 235.249C291.681 235.929 291.25 236.61 290.819 237.291C290.672 237.211 290.525 237.131 290.379 237.051C290.43 236.074 290.482 235.096 290.533 234.119C288.534 236.982 287.196 239.931 288.637 243.226C288.684 243.255 288.729 243.284 288.775 243.312C288.676 243.486 288.58 243.654 288.496 243.8C288.099 244.5 287.889 244.87 287.889 244.87C288.252 244.391 288.598 243.905 288.949 243.421C290.091 244.136 291.117 244.779 292.572 245.688C303.777 244.468 315.542 244.046 327.609 245.434C328.443 247.339 329.277 249.244 330.272 251.516C328.603 251.516 327.424 251.511 326.245 251.517C316.694 251.564 307.868 254.03 299.967 259.486C297.041 261.506 295.062 264.309 293.276 267.888C295.728 265.66 297.573 263.478 299.867 261.99C308.374 256.473 317.8 253.839 327.929 254.412C330.9 254.579 333.829 255.832 336.725 256.752C337.536 257.01 338.16 257.851 338.874 258.428C340.618 257.383 341.59 259.982 343.656 259.465C342.013 258.288 340.369 257.11 339.093 256.197C339.367 252.636 339.568 250.021 339.806 246.924C343.809 248.212 347.248 249.303 350.676 250.428C353.255 251.274 353.875 251.935 353.509 254.722C352.595 261.703 351.52 268.665 350.406 275.617C348.995 284.422 347.528 293.219 345.967 301.997C345.719 303.388 345.126 304.921 344.205 305.953C339.535 311.187 334.704 316.278 329.816 321.541C338.995 316.002 346.166 308.701 351.347 299.423ZM322.98 238.124C315.247 236.21 307.424 235.465 299.466 236.125C298.451 236.21 297.392 235.748 296.061 235.481C295.885 235.574 295.413 235.826 294.887 236.106C294.728 235.694 294.584 235.319 294.431 234.921C296.184 231.84 297.715 228.753 299.014 225.734C300.385 222.581 301.496 219.499 302.421 216.565C303.335 213.625 303.99 210.786 304.255 208.136C304.53 205.486 304.401 203.04 303.999 200.952C303.888 200.377 303.755 199.837 303.612 199.317C304.908 201.974 306.219 204.622 307.606 207.229C312.591 216.594 317.691 225.896 322.724 235.235C323.175 236.073 323.478 236.99 323.862 237.899C323.326 238.042 323.134 238.162 322.98 238.124ZM337.331 254.047C335.068 253.206 333.271 252.537 331.25 251.787C330.569 249.783 329.949 247.96 329.121 245.524C332.172 245.905 334.754 246.227 337.827 246.611C337.655 249.199 337.506 251.43 337.331 254.047ZM339.921 242.051C340.582 232.761 338.915 223.379 336.645 213.988C342.597 225.106 348.213 236.35 352.189 249.007C347.845 246.544 344.093 244.416 339.921 242.051Z" fill="#09041D"/>
<path d="M86.8223 260.585C81.565 241.343 81.7462 221.909 85.4523 202.494C89.1454 183.146 96.73 165.145 105.445 147.584C106.282 145.896 107.51 145.124 109.255 144.723C118.168 142.672 126.756 139.634 135.152 136.034C135.75 135.778 136.341 135.498 136.906 135.177C137.468 134.859 137.991 134.475 138.532 134.12C128.609 137.452 118.72 140.503 108.474 142.533C109.027 141.711 109.743 141.259 110.493 140.875C112.974 139.605 115.553 138.505 117.94 137.081C127.029 131.658 135.051 124.892 142.423 117.328C150.929 108.6 159.411 99.8491 167.976 91.1786C179.166 79.85 192.458 72.1579 208 68.5068C216.567 66.4943 224.998 67.0511 232.551 71.7201C240.874 76.8649 248.687 82.7728 254.4 90.9715C254.735 91.4538 255.173 91.8648 255.564 92.3091C255.793 92.178 256.022 92.0461 256.251 91.915C255.131 89.7504 254.201 87.458 252.856 85.4439C248.68 79.1946 242.659 74.9075 236.537 70.8251C228.745 65.6309 220.026 64.0482 210.902 65.5298C201.451 67.064 192.625 70.5807 184.377 75.4375C174.656 81.1625 166.618 88.8789 158.971 97.0752C151.547 105.032 144.223 113.113 136.372 120.636C124.484 132.028 110.748 140.345 94.3437 143.687C91.5471 144.257 88.8347 145.24 86.0835 146.031C86.1207 146.174 86.1587 146.315 86.1959 146.458C90.2022 145.919 94.2085 145.38 98.2148 144.841C98.2432 145.024 98.2707 145.206 98.299 145.389C93.8007 146.188 89.3024 146.988 84.4214 147.856C91.4889 149.221 97.8483 147.027 104.636 145.956C104.29 146.871 104.135 147.382 103.912 147.862C100.612 154.943 97.1006 161.933 94.0329 169.113C83.6867 193.325 78.6575 218.399 82.0537 244.824C83.193 253.689 85.6457 262.087 89.9465 270.05C88.8962 266.896 87.697 263.785 86.8223 260.585Z" fill="#09041D"/>
<path d="M300.626 291.779C301.808 295.263 303.958 298.042 307.297 299.779C307.279 299.373 307.139 299.05 306.904 298.824C303.954 295.988 302.344 292.489 302.215 288.447C302.121 285.501 302.262 282.517 302.627 279.592C303.412 273.314 306.337 268.44 312.194 265.479C319.628 261.721 323.685 265.045 327.157 270.747C327.589 271.455 327.91 272.246 328.186 273.033C330.705 280.237 330.277 287.276 326.953 294.142C326.57 294.934 326.187 295.726 325.67 296.796C328.72 295.187 330.608 290.019 331.767 284.93C333.364 277.91 331.419 271.555 326.913 265.234C329.712 265.917 331.505 266.939 332.857 268.644C338.689 275.989 340.605 284.279 338.774 293.482C342.649 283.675 343.653 273.933 337.878 264.282C338.156 264.183 338.435 264.084 338.712 263.984C340.56 266.493 342.409 269.002 344.257 271.511C344.434 271.439 344.611 271.369 344.788 271.298C344.042 269.358 343.568 267.251 342.497 265.512C339.727 261.015 335.48 258.723 330.367 257.437C317.521 254.208 303.575 256.922 294.958 271.164C292.164 275.782 291.143 280.726 292.04 286.182C292.816 284.386 293.592 282.589 294.399 280.722C294.698 281.167 294.899 281.468 295.317 282.093C296.852 275.874 299.476 270.704 303.908 266.63C304.076 266.77 304.242 266.909 304.409 267.049C303.365 269.117 302.219 271.141 301.297 273.261C298.655 279.329 298.513 285.545 300.626 291.779Z" fill="#09041D"/>
<path d="M315.368 303.073C324.941 303.073 332.702 293.67 332.702 282.071C332.702 270.472 324.941 261.07 315.368 261.07C305.795 261.07 298.034 270.472 298.034 282.071C298.034 293.67 305.795 303.073 315.368 303.073Z" stroke="#09041D" stroke-width="3.49796" stroke-miterlimit="10"/>
<path d="M410.894 312.446C410.243 312.096 409.581 311.767 408.928 311.421C396.039 304.601 386.675 294.729 383.766 280.118C381.173 267.094 381.064 253.873 383.183 240.708C383.749 237.189 384.573 233.711 385.352 229.854C398.923 242.859 404.468 257.965 400.509 276.245C401.018 275.756 401.305 275.3 401.499 274.807C404.387 267.472 404.924 260.02 402.637 252.413C400.12 244.044 394.959 237.414 388.847 231.423C387.727 230.326 386.366 229.475 385.419 228.744C386.86 218.014 388.006 208.119 385.238 198.28C383.21 191.069 375.378 175.737 371.785 172.059C374.099 177.509 376.285 182.942 378.694 188.276C384.05 200.136 385.055 212.47 382.79 225.134C382.074 229.142 380.577 233.016 379.938 237.031C377.693 251.119 377.714 265.204 381.025 279.148C382.137 283.832 383.712 288.406 385.114 293.156C385.661 292.736 385.911 292.544 386.217 292.31C390.959 300.538 396.746 307.436 405.338 311.1C400.915 311.387 396.628 310.845 392.76 309.724C392.014 309.355 391.285 308.946 390.593 308.456C387.143 306.015 383.897 303.138 381.08 299.988C378.342 296.928 376.261 293.28 373.893 289.89C376.883 297.009 381.162 303.116 387.35 307.661C383.766 305.937 380.76 303.735 378.426 301.489C375.427 298.618 373.436 295.76 372.226 293.681C371.917 293.163 371.651 292.695 371.438 292.277C371.216 291.865 371.029 291.513 370.895 291.22C370.812 291.051 370.744 290.912 370.684 290.789C370.328 288.257 369.992 285.838 369.682 283.641C369.079 290.684 369.979 298.796 371.999 306.887C370.987 305.713 370.364 304.402 369.636 303.153C367.865 300.113 368.584 296.658 367.943 293.432C366.7 287.168 366.552 280.906 367.629 274.588C369.675 262.592 371.64 250.582 373.568 238.568C373.801 237.117 373.6 235.597 373.6 234.109C371.743 242.889 370.185 251.664 368.288 260.366C365.983 270.941 363.929 281.449 365.784 292.386C366.901 298.975 368.268 305.314 372.421 310.788C373.505 312.217 374.226 314.059 374.657 315.823C376.768 324.461 372.623 333.196 364.468 337.632C363.728 338.034 362.994 338.446 362.257 338.853C366.801 338.817 370.595 337.09 373.284 333.673C377.855 327.864 378.114 321.258 375.591 313.956C379.635 315.96 383.176 317.541 387.24 315.897C386.692 315.825 386.145 315.757 385.598 315.681C379.23 314.796 375.138 311.235 373.232 305.128C372.845 303.888 372.398 302.644 372.208 301.367C371.696 297.941 371.209 294.518 370.754 291.277C372.59 296.926 376.148 301.769 380.251 305.131C384.587 308.738 389.5 310.645 393.676 311.438C394.189 311.537 394.692 311.619 395.184 311.689C397.56 312.359 400.06 312.563 402.71 312.162C402.105 312.106 401.5 312.039 400.897 311.963C401.963 311.913 402.918 311.813 403.727 311.692C404.317 311.613 404.836 311.516 405.284 311.42C405.485 311.381 405.667 311.343 405.839 311.305C407.468 311.967 409.185 312.529 411.026 312.949C410.937 312.599 410.942 312.472 410.894 312.446Z" fill="#09041D"/>
<path d="M415.423 183.859C415.033 183.607 414.654 183.334 414.247 183.111C403.066 176.976 395.108 167.978 390.089 156.265C386.866 148.743 383.681 141.186 380.02 133.875C372.926 119.708 362.364 109.113 347.243 103.519C344.018 102.326 341.438 100.224 339.266 97.5922C338.776 96.9999 338.273 96.4189 337.775 95.8331C339.825 100.591 343.559 103.453 348.139 105.418C361.064 110.962 370.679 120.156 377.041 132.586C380.85 140.029 384.075 147.775 387.464 155.428C392.115 165.936 399.575 174.099 408.672 180.851C410.992 182.572 413.715 183.748 416.253 185.176C416.357 184.985 416.462 184.795 416.567 184.606C416.187 184.356 415.806 184.106 415.423 183.859Z" fill="#09041D"/>
<path d="M402.532 209.909C397.913 202.168 392.9 194.663 388.136 187.006C384.802 181.648 381.384 176.322 378.967 170.415C379.339 171.737 379.558 173.128 380.114 174.369C381.481 177.419 382.805 180.516 384.5 183.385C389.703 192.187 395.165 200.837 400.348 209.65C405.255 217.993 409.954 226.461 411.369 236.268C413.15 248.605 412.2 260.494 405.758 271.578C406.73 270.682 407.922 269.827 408.483 268.667C410.09 265.344 411.918 262.016 412.794 258.477C414.595 251.192 414.471 243.771 413.328 236.322C411.839 226.622 407.446 218.144 402.532 209.909Z" fill="#09041D"/>
<path d="M263.891 232.902C265.198 230.236 265.883 228.71 265.883 228.71C258.273 241.983 250.87 253.882 245.295 262.444C242.493 266.718 240.304 270.252 238.283 272.273C237.294 273.3 236.407 273.979 235.783 274.403C235.472 274.62 235.223 274.766 235.055 274.864C234.936 274.935 234.874 274.972 234.839 274.993C242.382 256.799 248.609 238.134 254.625 219.396C255.503 216.661 256.141 213.836 256.7 211.016C257.05 209.251 257.043 207.417 257.196 205.613C256.938 205.611 256.681 205.608 256.423 205.605C256.19 206.308 255.937 207.004 255.727 207.712C253.917 213.841 252.349 220.053 250.261 226.085C246.19 237.848 241.664 249.454 237.674 261.244C236.146 265.762 235.896 270.687 233.877 275.115C233.481 275.983 233.249 276.926 232.942 277.836C233.853 277.007 234.401 276.05 234.821 275.039C234.827 275.025 234.832 275.012 234.837 274.998C236.512 274.257 237.996 273.125 239.286 271.847C240.589 270.557 241.719 269.127 242.781 267.698C244.892 264.831 246.88 261.991 248.73 259.221C252.435 253.682 255.576 248.431 258.116 243.905C260.651 239.375 262.584 235.568 263.891 232.902Z" fill="#09041D"/>
<path d="M332.762 144.794C338.762 150.767 344.796 156.707 350.686 162.787C362.551 175.035 369.945 189.568 372.944 206.351C372.603 203.586 372.394 200.799 371.897 198.063C369.269 183.59 362.541 171.279 351.942 161.132C345.896 155.343 339.669 149.743 333.464 144.123C332.208 142.986 330.688 142.141 329.29 141.161C330.284 142.612 331.594 143.631 332.762 144.794Z" fill="#09041D"/>
<path d="M88.0247 301.466C99.4998 289.237 113.084 251.27 111.193 237.101C109.253 248.484 107.72 259.807 103.192 270.316C103.606 261.382 104.019 252.442 104.433 243.501C104.222 243.49 104.011 243.479 103.801 243.467C103.252 251.964 102.528 260.455 102.243 268.961C102.134 272.225 101.545 275.213 100.099 278.049C96.3869 285.333 92.6031 292.58 88.8485 299.843C88.5701 300.382 88.299 300.924 88.0247 301.466Z" fill="#09041D"/>
<path d="M86.8676 211.086C86.7527 211.631 86.6515 212.178 86.5649 212.729C83.9124 229.585 86.2736 246.101 90.195 262.456C91.4678 267.766 93.2513 273.003 96.8044 277.676C88.7425 255.623 85.3115 233.161 87.2123 209.743C87.0707 210.289 86.9525 210.684 86.8676 211.086Z" fill="#09041D"/>
<path d="M249.299 108.54C248.977 108.209 248.631 107.892 248.255 107.624C243.733 104.393 238.629 102.616 233.133 102.601C222.476 102.574 213.858 107.723 205.813 114.102C212.344 110.053 219.338 107.294 226.916 105.852C234.842 104.343 242.077 106.951 249.539 109.477C249.393 108.875 249.406 108.65 249.299 108.54Z" fill="#09041D"/>
<path d="M250.839 100.95C250.486 98.3845 249.109 96.406 246.328 94.7318C242.225 92.2605 237.821 90.6033 233.045 89.9568C224.465 88.7956 216.017 89.1719 207.821 92.0793C216.983 90.2724 226.051 90.8064 235.008 92.8116C240.82 94.1128 246.551 95.8954 250.376 101.063C250.413 101.112 250.681 100.991 250.839 100.95Z" fill="#09041D"/>
<path d="M290.109 115.649C304.089 125.699 318.068 135.75 332.048 145.8C318.902 134.637 305.381 123.992 290.109 115.649Z" fill="#09041D"/>
<path d="M142.64 213.102C147.409 203.314 152.927 194.008 160.074 185.662C150.935 192.633 145.322 201.936 142.64 213.102Z" fill="#09041D"/>
<path d="M122.02 508.992C133.341 499.949 144.663 490.906 155.984 481.862C155.869 481.719 155.754 481.575 155.638 481.432C143.894 489.95 132.206 498.538 122.02 508.992Z" fill="#09041D"/>
<path d="M325.686 163.065C322.76 156.806 302.202 138.345 295.409 135.782C305.697 144.841 316.714 152.354 325.686 163.065Z" fill="#09041D"/>
<path d="M101.571 193.164C104.979 178.688 107.341 163.92 113.698 150.271C106.217 163.605 103.926 178.394 101.571 193.164Z" fill="#09041D"/>
<path d="M414.701 187.111C403.214 184.982 393.438 179.195 384.192 172.318C392.79 180.356 402.497 186.168 414.701 187.111Z" fill="#09041D"/>
<path d="M277.317 442.863C275.47 456.893 273.905 470.937 274.875 485.382C275.701 471 276.508 456.931 277.317 442.863Z" fill="#09041D"/>
<path d="M281.511 411.452C275.682 415.055 269.691 418.419 264.235 422.57C259.861 425.065 255.907 427.487 252.554 429.637C245.211 434.341 240.7 437.721 240.7 437.721C252.1 431.732 262.243 425.722 269.562 421.217C276.879 416.711 281.351 413.685 281.351 413.685C279.069 414.747 276.835 415.84 274.656 416.947C277.086 415.324 279.516 413.703 281.946 412.08C281.801 411.872 281.656 411.662 281.511 411.452Z" fill="#09041D"/>
<path d="M244.613 118.995C237.711 114.207 224.405 118.153 218.216 123.792C226.523 119.196 234.839 116.709 244.613 118.995Z" fill="#09041D"/>
<path d="M179.601 445.49C175.178 455.399 172.654 466.015 171.036 476.882C173.891 466.417 176.747 455.954 179.601 445.49Z" fill="#09041D"/>
<path d="M280.908 334.032C282.06 333.094 282.722 331.781 282.006 330.347C281.067 328.468 279.893 326.707 278.821 324.895C278.66 324.986 278.499 325.076 278.339 325.168C278.999 327.254 279.659 329.34 280.358 331.547C279.104 333.197 277.898 334.782 276.691 336.369C276.825 336.49 276.959 336.611 277.093 336.732C278.369 335.838 279.702 335.012 280.908 334.032Z" fill="#09041D"/>
<path d="M282.36 102.856C291.756 101.781 298.947 106.156 306.269 110.123C299.411 104.699 291.918 101.272 282.36 102.856Z" fill="#09041D"/>
<path d="M246.565 362.768C249.38 363.613 252.181 364.511 255.017 365.278C256.214 365.601 257.412 365.499 258.007 363.618C254.148 363.156 250.422 362.71 246.695 362.264C246.653 362.432 246.609 362.6 246.565 362.768Z" fill="#09041D"/>
<path d="M248.959 144.037C248.764 143.931 248.569 143.825 248.375 143.719C245.575 149.995 242.774 156.271 239.973 162.548C240.145 162.625 240.318 162.703 240.49 162.781C243.313 156.533 246.135 150.285 248.959 144.037Z" fill="#09041D"/>
<path d="M267.089 366.014C269.811 366.593 274.026 365.779 276.783 363.986C267.78 364.209 267.717 364.222 267.089 366.014Z" fill="#09041D"/>
<path d="M277.591 221.046C274.565 225.708 271.504 230.423 268.442 235.138C272.355 230.918 275.499 226.208 277.591 221.046Z" fill="#09041D"/>
<path d="M308.439 302.974C311.155 302.974 313.869 302.974 316.585 302.974C316.59 302.838 316.595 302.701 316.6 302.566C313.926 302.566 311.253 302.566 308.578 302.566C308.532 302.701 308.485 302.837 308.439 302.974Z" fill="#09041D"/>
<path d="M271.219 251.016C277.212 244.036 280.362 236.123 282.153 227.405C283.484 223.471 284.476 219.727 285.075 216.342C285.951 211.425 286.147 207.308 286.025 204.466C286.032 203.045 285.867 201.938 285.822 201.187C285.753 200.437 285.717 200.04 285.717 200.04C285.655 203.694 285.303 207.235 284.762 210.625C284.241 214.02 283.424 217.244 282.607 220.303C280.902 226.409 278.893 231.809 277.118 236.335C275.34 240.861 273.824 244.527 272.789 247.075C272.345 248.187 271.992 249.07 271.728 249.729C271.379 250.361 271.03 251 270.684 251.646C270.865 251.443 271.033 251.235 271.209 251.029C271.207 251.034 271.2 251.051 271.2 251.051C271.207 251.038 271.214 251.027 271.219 251.016ZM278.072 237.644C277.504 238.972 276.876 240.277 276.209 241.573C276.856 240.257 277.479 238.947 278.072 237.644Z" fill="#09041D"/>
<path d="M148.279 170.09C155.969 166.065 162.686 161.73 168.08 157.658C173.484 153.595 177.658 149.919 180.441 147.244C181.861 145.939 182.895 144.836 183.626 144.119C184.346 143.389 184.727 143.003 184.727 143.003C177.171 149.46 169.539 155.125 162.285 159.865C155.026 164.599 148.194 168.47 142.288 171.451C136.387 174.439 131.465 176.644 128.014 178.075C126.345 178.76 125.042 179.295 124.131 179.669C141.776 168.429 157.612 155.322 166.748 135.635C160.928 144.482 154.57 152.938 146.654 160.028C139.045 166.844 131.159 173.351 123.381 179.977C122.892 180.178 122.63 180.286 122.63 180.286C122.832 180.228 123.029 180.164 123.23 180.105C123.009 180.293 122.787 180.48 122.567 180.668C122.927 180.441 123.283 180.209 123.644 179.981C127.892 178.726 132.041 177.289 136.026 175.707C140.323 173.984 144.415 172.063 148.279 170.09Z" fill="#09041D"/>
<path d="M205.271 158.45C200.904 164.337 197.851 169.545 195.968 173.275C194.961 175.106 194.338 176.622 193.848 177.615C193.382 178.621 193.135 179.154 193.135 179.154C195.745 174.452 198.555 170.011 201.471 165.855C204.376 161.69 207.493 157.892 210.547 154.35C211.329 153.479 212.102 152.619 212.864 151.769C213.624 150.917 214.431 150.13 215.194 149.322C216.708 147.693 218.301 146.233 219.791 144.766C221.324 143.345 222.823 141.987 224.288 140.708C225.033 140.083 225.763 139.469 226.479 138.868C227.187 138.258 227.894 137.679 228.606 137.139C234.213 132.706 239.067 129.461 242.527 127.379C243.377 126.831 244.15 126.374 244.83 125.993C245.505 125.602 246.076 125.271 246.539 125.004C247.462 124.465 247.949 124.18 247.949 124.18C243.219 126.301 238.692 128.748 234.439 131.408C230.198 134.09 226.278 137.038 222.65 140.033C215.483 146.131 209.62 152.553 205.271 158.45Z" fill="#09041D"/>
<path d="M261.517 155.005C262.97 145.5 263.651 139.501 263.651 139.501C260.138 152.945 257.91 165.986 256.589 175.647C255.267 185.312 254.821 191.598 254.821 191.598C257.868 177.522 260.063 164.511 261.517 155.005Z" fill="#09041D"/>
<path d="M295.557 153.742C298.568 157.478 301.167 161.033 303.218 164.167C305.275 167.297 306.864 169.954 307.916 171.839C308.974 173.728 309.569 174.792 309.569 174.792C307.766 169.501 305.322 164.655 302.647 160.521C299.966 156.386 297.1 152.934 294.473 150.251C291.849 147.562 289.518 145.585 287.844 144.303C287.023 143.642 286.339 143.185 285.893 142.854C285.44 142.533 285.201 142.364 285.201 142.364C287.113 144.267 288.944 146.18 290.681 148.078C292.412 149.983 294.03 151.891 295.557 153.742Z" fill="#09041D"/>
<path d="M250.041 436.095C248.77 437.148 248.083 437.779 248.083 437.779C255.529 433.67 262.123 429.653 266.924 426.665C269.322 425.171 271.259 423.925 272.599 423.054C273.938 422.181 274.674 421.674 274.674 421.674C266.972 424.567 260.232 428.6 255.53 431.914C253.174 433.572 251.311 435.039 250.041 436.095Z" fill="#09041D"/>
<path d="M187.309 315.621C196.008 312.77 201.968 306.936 201.968 306.936C193.09 310.14 187.309 315.621 187.309 315.621Z" fill="#09041D"/>
<path d="M200.993 314.927C200.989 314.912 200.98 314.99 200.923 315.052C200.98 315.043 201.023 315.009 200.993 314.927Z" fill="#09041D"/>
<path d="M200.948 314.387C201.353 314.256 201.925 314.128 202.392 313.982C203.371 313.695 204.306 313.372 205.189 313.03C206.956 312.345 208.518 311.582 209.815 310.87C212.409 309.444 213.945 308.219 213.945 308.219C209.609 309.18 205.957 310.805 203.388 312.191C202.745 312.537 202.171 312.868 201.67 313.171C201.42 313.325 201.187 313.469 200.973 313.601C200.744 313.746 200.51 313.91 200.349 314.152C200.197 314.385 200.166 314.66 200.277 314.833C200.381 315.006 200.547 315.089 200.679 315.116C200.81 315.139 200.878 315.099 200.921 315.052C200.873 315.06 200.815 315.053 200.771 315.036C200.67 314.991 200.594 314.907 200.576 314.809C200.559 314.585 200.764 314.454 200.948 314.387Z" fill="#09041D"/>
<path d="M210.067 315.145C217.847 313.66 223.286 308.897 223.286 308.897C215.337 310.697 210.067 315.145 210.067 315.145Z" fill="#09041D"/>
<path d="M320.476 308.13C321.133 307.534 321.473 307.16 321.473 307.16C317.251 308.887 313.647 310.632 310.975 311.963C309.645 312.629 308.564 313.199 307.812 313.6C307.061 314.003 306.646 314.251 306.646 314.251C311.087 313.885 314.98 312.082 317.544 310.387C318.835 309.538 319.82 308.729 320.476 308.13Z" fill="#09041D"/>
<path d="M319.437 314.482C328.355 311.896 334.639 306.231 334.639 306.231C325.523 309.165 319.437 314.482 319.437 314.482Z" fill="#09041D"/>
<path d="M333.952 312.21C338.585 311.382 340.616 307.538 340.616 307.538C335.975 308.631 333.952 312.21 333.952 312.21Z" fill="#09041D"/>
<path d="M101.673 204.26C102.139 202.325 102.636 200.85 102.917 199.828C103.211 198.81 103.367 198.271 103.367 198.271C99.4586 207.777 97.1176 217.504 96.1676 226.507C95.1505 235.515 95.4612 243.773 96.2769 250.624C97.0877 257.487 98.4487 262.948 99.4974 266.676C99.7782 267.603 100.027 268.427 100.244 269.143C100.485 269.846 100.574 270.48 100.936 270.943C101.12 271.164 101.388 271.286 101.601 271.22C101.812 271.163 101.946 271.016 102.013 270.889C102.144 270.597 101.94 270.488 101.964 270.495C102.079 270.596 102.053 270.793 101.954 270.911C101.858 271.032 101.719 271.12 101.568 271.141C101.244 271.165 101.024 270.866 100.918 270.6C100.717 270.034 100.64 269.405 100.494 268.813C100.244 267.609 99.9579 266.421 99.7313 265.227C99.5136 264.031 99.2976 262.842 99.0815 261.658C98.8727 260.474 98.7263 259.286 98.5434 258.114C97.9041 253.411 97.4316 248.81 97.2964 244.377C96.9226 235.514 97.5109 227.373 98.4115 220.519C99.3615 213.667 100.629 208.094 101.673 204.26Z" fill="#09041D"/>
<path d="M127.045 219.472C127.016 221.235 127.067 222.227 127.067 222.227C128.635 213.297 130.628 205.358 132.349 199.599C133.204 196.724 133.949 194.389 134.491 192.776C135.026 191.156 135.323 190.255 135.323 190.255C133.067 194.011 131.336 197.96 130.091 201.722C128.86 205.49 128.08 209.059 127.648 212.114C127.212 215.172 127.067 217.708 127.045 219.472Z" fill="#09041D"/>
<path d="M178.922 361.037C180.874 362.664 182.182 365.015 182.891 367.485C183.594 369.977 183.728 372.55 183.978 375.041C184.458 380.062 184.843 385.088 185.211 390.116C185.547 395.146 185.865 400.176 186.087 405.214C186.332 410.251 186.473 415.294 186.51 420.345C185.845 415.338 185.284 410.324 184.827 405.302C184.348 400.282 183.962 395.254 183.597 390.225C183.262 385.194 182.946 380.163 182.723 375.125C182.581 372.598 182.617 370.093 182.125 367.67C181.887 366.461 181.537 365.266 181.001 364.147C180.456 363.033 179.76 361.983 178.922 361.037Z" fill="white"/>
<path d="M363.827 460.961C358.135 457.732 352.547 454.33 346.968 450.94C341.375 447.571 335.775 444.23 330.035 441.162C327.187 439.598 324.247 438.186 321.347 436.648C318.459 435.106 315.577 433.555 312.736 431.932C307.032 428.725 301.433 425.35 295.852 421.935C301.736 424.799 307.544 427.807 313.337 430.822C316.244 432.31 319.131 433.831 322.05 435.287C324.946 436.769 327.905 438.178 330.8 439.738C336.574 442.86 342.171 446.281 347.638 449.876C353.117 453.454 358.47 457.205 363.827 460.961Z" fill="white"/>
<path d="M152.521 478.731C149.288 476.137 146.137 472.768 143.09 468.381C146.048 472.939 149.226 476.418 152.521 478.731Z" fill="white"/>
<path d="M152.521 478.731C153.026 479.137 153.534 479.527 154.044 479.895C154.649 480.148 155.254 480.401 155.859 480.653C154.736 480.144 153.621 479.504 152.521 478.731Z" fill="white"/>
<path d="M225.95 498C221.68 494.886 217.376 492.178 212.993 490.425C193.565 482.656 172.549 493.282 154.044 479.896C132.643 470.96 111.243 462.025 89.8411 453.089C86.5501 451.716 83.2586 450.342 79.968 448.967C64.597 442.549 49.2261 436.132 33.8762 429.398C38.2636 427.284 42.6515 425.17 47.039 423.055C35.0482 408.446 20.6744 410.089 9.60711 390.76C7.15068 386.47 4.87291 381.166 2.11728 378.564C1.44466 377.929 0.727286 377.505 0.000488281 377.314V498H225.95Z" fill="white"/>
<path d="M499.998 465.097L344.245 437.439L499.998 482.702V465.097Z" fill="white"/>
<path d="M499.998 491.174L375.957 469.148L475.241 498H499.998V491.174Z" fill="white"/>
<path d="M499.999 417.931L411.886 402.285L499.999 427.891V417.931Z" fill="white"/>
<path d="M499.998 431.49L346.885 404.302L499.998 448.798V431.49Z" fill="white"/>
<path d="M0 302.319V312.991L91.1372 355.192L0 302.319Z" fill="white"/>
<path d="M0 324.198V331.598L63.1944 360.86L0 324.198Z" fill="white"/>
<path d="M0 262.748V267.649L41.8559 287.031L0 262.748Z" fill="white"/>
<path d="M0 274.125V284.944L92.4027 327.731L0 274.125Z" fill="white"/>
<path d="M190.896 -2C170.192 1.34765 149.489 5.0568 128.791 9.1457C150.555 15.3036 172.32 21.4614 194.085 27.6193C193.391 28.4856 192.709 29.4076 192.047 30.4382L198.889 30.6439C212.68 38.7429 226.471 46.8428 240.262 54.9418C246.244 58.4548 252.225 61.9678 258.207 65.4809C268.064 71.2695 277.993 77.0842 288.12 78.2023C296.151 79.0887 304.181 77.0054 312.176 74.9249L332.295 69.689C336.999 70.7427 341.704 71.7974 346.409 72.8511C347.05 73.9029 347.689 75.0123 348.327 76.1987C347.745 75.0277 347.158 73.925 346.567 72.8867C356.593 75.1335 366.618 77.3793 376.644 79.6262C372.824 80.3492 369.003 81.0731 365.183 81.7961C378.841 93.3619 393.467 98.0277 407.88 95.4155C416.581 96.6846 425.372 98.02 433.724 104.126C432.529 104.06 431.333 103.993 430.138 103.927L441.773 110.98C438.174 111.79 434.574 112.602 430.975 113.412C445.846 122.481 460.716 131.55 475.586 140.618C475.369 140.025 475.214 139.307 475.162 138.508C479.526 143.682 483.89 148.856 488.254 154.03C489.636 157.38 491.044 160.363 492.549 162.004C495.18 164.871 498.292 162.424 500 152.746V-2H190.896Z" fill="white"/>
<path d="M477.755 141.942C477.031 141.501 476.308 141.061 475.585 140.619C476.114 142.064 477.02 142.752 477.755 141.942Z" fill="white"/>
</g>
<defs>
<clipPath id="clip0_28_211">
<rect width="500" height="500" rx="250" fill="white"/>
</clipPath>
</defs>
</svg>
