<svg width="393" height="74" viewBox="0 0 393 74" fill="none" xmlns="http://www.w3.org/2000/svg">
<g style="mix-blend-mode:hard-light">
<path d="M0.7 72V2H35.2C43 2 49.8667 3.43333 55.8 6.3C61.7333 9.1 66.3667 13.1 69.7 18.3C73.0333 23.5 74.7 29.7 74.7 36.9C74.7 44.1667 73.0333 50.4333 69.7 55.7C66.3667 60.9 61.7333 64.9333 55.8 67.8C49.8667 70.6 43 72 35.2 72H0.7ZM24.3 53.6H34.2C37.5333 53.6 40.4333 52.9667 42.9 51.7C45.4333 50.4333 47.4 48.5667 48.8 46.1C50.2 43.5667 50.9 40.5 50.9 36.9C50.9 33.3667 50.2 30.3667 48.8 27.9C47.4 25.4333 45.4333 23.5667 42.9 22.3C40.4333 21.0333 37.5333 20.4 34.2 20.4H24.3V53.6ZM116.817 73.6C106.084 73.6 97.7172 70.7 91.7172 64.9C85.7172 59.1 82.7172 50.9667 82.7172 40.5V2H106.317V39.8C106.317 45.1333 107.284 48.9333 109.217 51.2C111.151 53.4 113.751 54.5 117.017 54.5C120.351 54.5 122.951 53.4 124.817 51.2C126.751 48.9333 127.717 45.1333 127.717 39.8V2H150.917V40.5C150.917 50.9667 147.917 59.1 141.917 64.9C135.917 70.7 127.551 73.6 116.817 73.6ZM161.735 72V2H199.135C208.802 2 215.935 3.73333 220.535 7.2C225.135 10.6 227.435 14.9667 227.435 20.3C227.435 23.8333 226.435 27 224.435 29.8C222.502 32.5333 219.668 34.7 215.935 36.3C212.202 37.9 207.602 38.7 202.135 38.7L204.135 33.3C209.602 33.3 214.302 34.0667 218.235 35.6C222.235 37.1333 225.302 39.3667 227.435 42.3C229.635 45.1667 230.735 48.6333 230.735 52.7C230.735 58.7667 228.202 63.5 223.135 66.9C218.135 70.3 210.802 72 201.135 72H161.735ZM184.935 55.5H199.135C201.735 55.5 203.668 55.0333 204.935 54.1C206.268 53.1667 206.935 51.8 206.935 50C206.935 48.2 206.268 46.8333 204.935 45.9C203.668 44.9667 201.735 44.5 199.135 44.5H183.335V28.9H195.935C198.602 28.9 200.535 28.4667 201.735 27.6C203.002 26.6667 203.635 25.3667 203.635 23.7C203.635 21.9667 203.002 20.6667 201.735 19.8C200.535 18.9333 198.602 18.5 195.935 18.5H184.935V55.5Z" fill="white"/>
<path d="M275.379 73.6C269.712 73.6 264.479 72.7333 259.679 71C254.946 69.2 250.812 66.6667 247.279 63.4C243.812 60.1333 241.112 56.2667 239.179 51.8C237.246 47.3333 236.279 42.4 236.279 37C236.279 31.6 237.246 26.6667 239.179 22.2C241.112 17.7333 243.846 13.8667 247.379 10.6C250.912 7.33333 255.079 4.83333 259.879 3.1C264.746 1.3 270.079 0.399998 275.879 0.399998C282.812 0.399998 288.979 1.56666 294.379 3.89999C299.846 6.23333 304.346 9.56666 307.879 13.9L292.779 27.2C290.579 24.6667 288.179 22.7667 285.579 21.5C283.046 20.1667 280.212 19.5 277.079 19.5C274.479 19.5 272.112 19.9 269.979 20.7C267.912 21.5 266.146 22.6667 264.679 24.2C263.212 25.7333 262.079 27.5667 261.279 29.7C260.479 31.8333 260.079 34.2667 260.079 37C260.079 39.6 260.479 42 261.279 44.2C262.079 46.3333 263.212 48.1667 264.679 49.7C266.146 51.2333 267.879 52.4333 269.879 53.3C271.946 54.1 274.246 54.5 276.779 54.5C279.446 54.5 282.046 54.0667 284.579 53.2C287.112 52.2667 289.812 50.7 292.679 48.5L305.879 64.7C301.612 67.5667 296.746 69.7667 291.279 71.3C285.812 72.8333 280.512 73.6 275.379 73.6ZM285.379 61.7V35.1H305.879V64.7L285.379 61.7ZM352.634 73.6C346.968 73.6 341.701 72.7 336.834 70.9C332.034 69.1 327.868 66.5667 324.334 63.3C320.801 59.9667 318.034 56.0667 316.034 51.6C314.101 47.1333 313.134 42.2667 313.134 37C313.134 31.6667 314.101 26.8 316.034 22.4C318.034 17.9333 320.801 14.0667 324.334 10.8C327.868 7.46666 332.034 4.9 336.834 3.1C341.701 1.3 346.968 0.399998 352.634 0.399998C358.368 0.399998 363.634 1.3 368.434 3.1C373.234 4.9 377.401 7.46666 380.934 10.8C384.468 14.0667 387.201 17.9333 389.134 22.4C391.134 26.8 392.134 31.6667 392.134 37C392.134 42.2667 391.134 47.1333 389.134 51.6C387.201 56.0667 384.468 59.9667 380.934 63.3C377.401 66.5667 373.234 69.1 368.434 70.9C363.634 72.7 358.368 73.6 352.634 73.6ZM352.634 54.5C354.834 54.5 356.868 54.1 358.734 53.3C360.668 52.5 362.334 51.3667 363.734 49.9C365.201 48.3667 366.334 46.5333 367.134 44.4C367.934 42.2 368.334 39.7333 368.334 37C368.334 34.2667 367.934 31.8333 367.134 29.7C366.334 27.5 365.201 25.6667 363.734 24.2C362.334 22.6667 360.668 21.5 358.734 20.7C356.868 19.9 354.834 19.5 352.634 19.5C350.434 19.5 348.368 19.9 346.434 20.7C344.568 21.5 342.901 22.6667 341.434 24.2C340.034 25.6667 338.934 27.5 338.134 29.7C337.334 31.8333 336.934 34.2667 336.934 37C336.934 39.7333 337.334 42.2 338.134 44.4C338.934 46.5333 340.034 48.3667 341.434 49.9C342.901 51.3667 344.568 52.5 346.434 53.3C348.368 54.1 350.434 54.5 352.634 54.5Z" fill="#ff5860 "/>
</g>
</svg>