<svg width="353" height="74" viewBox="0 0 353 74" fill="none" xmlns="http://www.w3.org/2000/svg">
<path d="M62.2 53.1C62.2 56.1667 61.7333 58.9667 60.8 61.5C59.9333 63.9667 58.3333 66.1 56 67.9C53.7333 69.6333 50.6 71 46.6 72C42.6 73 37.5 73.5 31.3 73.5C25.1 73.5 20 73 16 72C12 71 8.83333 69.6333 6.5 67.9C4.23333 66.1 2.63333 63.9667 1.7 61.5C0.833334 58.9667 0.4 56.1667 0.4 53.1V3.6C0.4 2.33333 0.666667 1.43333 1.2 0.899997C1.8 0.299997 2.73333 -2.86102e-06 4 -2.86102e-06H19.7C20.9667 -2.86102e-06 21.8667 0.299997 22.4 0.899997C23 1.43333 23.3 2.33333 23.3 3.6V49.2C23.3 50.5333 23.8 51.6667 24.8 52.6C25.8 53.4667 28.0333 53.9 31.5 53.9C35.0333 53.9 37.3 53.4667 38.3 52.6C39.3 51.6667 39.8 50.5333 39.8 49.2V3.6C39.8 2.33333 40.0667 1.43333 40.6 0.899997C41.2 0.299997 42.1333 -2.86102e-06 43.4 -2.86102e-06H58.6C59.8667 -2.86102e-06 60.7667 0.299997 61.3 0.899997C61.9 1.43333 62.2 2.33333 62.2 3.6V53.1ZM126.409 72H76.8094C75.5427 72 74.6094 71.7333 74.0094 71.2C73.476 70.6 73.2094 69.6667 73.2094 68.4V55C73.2094 53.7333 73.4094 52.6333 73.8094 51.7C74.2094 50.7 74.8427 49.7333 75.7094 48.8L100.009 19.3H78.6094C77.3427 19.3 76.4094 19.0333 75.8094 18.5C75.276 17.9 75.0094 16.9667 75.0094 15.7V3.6C75.0094 2.33333 75.276 1.43333 75.8094 0.899997C76.4094 0.299997 77.3427 -2.86102e-06 78.6094 -2.86102e-06H124.609C125.876 -2.86102e-06 126.776 0.299997 127.309 0.899997C127.909 1.43333 128.209 2.33333 128.209 3.6V18.5C128.209 19.8333 128.009 21 127.609 22C127.209 22.9333 126.576 23.8667 125.709 24.8L102.509 52.9H126.409C127.676 52.9 128.576 53.2 129.109 53.8C129.709 54.3333 130.009 55.2333 130.009 56.5V68.4C130.009 69.6667 129.709 70.6 129.109 71.2C128.576 71.7333 127.676 72 126.409 72Z" fill="white"/>
<path d="M178.825 72H145.125C143.858 72 142.925 71.7333 142.325 71.2C141.792 70.6 141.525 69.6667 141.525 68.4V3.6C141.525 2.33333 141.792 1.43333 142.325 0.899997C142.925 0.299997 143.858 -2.86102e-06 145.125 -2.86102e-06H178.825C187.158 -2.86102e-06 193.325 1.66666 197.325 5C201.392 8.33333 203.425 13.4667 203.425 20.4V51.6C203.425 58.5333 201.392 63.6667 197.325 67C193.325 70.3333 187.158 72 178.825 72ZM164.225 19.1V53.1H176.125C177.725 53.1 178.892 52.7 179.625 51.9C180.425 51.1 180.825 49.8667 180.825 48.2V23.9C180.825 22.2333 180.425 21.0333 179.625 20.3C178.892 19.5 177.725 19.1 176.125 19.1H164.225ZM277.434 53.1C277.434 56.1667 276.968 58.9667 276.034 61.5C275.168 63.9667 273.568 66.1 271.234 67.9C268.968 69.6333 265.834 71 261.834 72C257.834 73 252.734 73.5 246.534 73.5C240.334 73.5 235.234 73 231.234 72C227.234 71 224.068 69.6333 221.734 67.9C219.468 66.1 217.868 63.9667 216.934 61.5C216.068 58.9667 215.634 56.1667 215.634 53.1V3.6C215.634 2.33333 215.901 1.43333 216.434 0.899997C217.034 0.299997 217.968 -2.86102e-06 219.234 -2.86102e-06H234.934C236.201 -2.86102e-06 237.101 0.299997 237.634 0.899997C238.234 1.43333 238.534 2.33333 238.534 3.6V49.2C238.534 50.5333 239.034 51.6667 240.034 52.6C241.034 53.4667 243.268 53.9 246.734 53.9C250.268 53.9 252.534 53.4667 253.534 52.6C254.534 51.6667 255.034 50.5333 255.034 49.2V3.6C255.034 2.33333 255.301 1.43333 255.834 0.899997C256.434 0.299997 257.368 -2.86102e-06 258.634 -2.86102e-06H273.834C275.101 -2.86102e-06 276.001 0.299997 276.534 0.899997C277.134 1.43333 277.434 2.33333 277.434 3.6V53.1ZM332.744 72H294.344C293.077 72 292.144 71.7333 291.544 71.2C291.01 70.6 290.744 69.6667 290.744 68.4V3.6C290.744 2.33333 291.01 1.43333 291.544 0.899997C292.144 0.299997 293.077 -2.86102e-06 294.344 -2.86102e-06H326.244C332.777 -2.86102e-06 337.61 1.26666 340.744 3.8C343.877 6.26666 345.444 10.1 345.444 15.3V20.1C345.444 22.9 344.944 25.2 343.944 27C343.01 28.7333 341.544 30.0333 339.544 30.9C343.81 31.3 346.977 32.7667 349.044 35.3C351.11 37.8333 352.144 41.5333 352.144 46.4V55.6C352.144 61.2 350.544 65.3333 347.344 68C344.21 70.6667 339.344 72 332.744 72ZM313.244 17V27.8H321.744C323.01 27.8 323.944 27.4667 324.544 26.8C325.21 26.1333 325.544 25.1333 325.544 23.8V21C325.544 19.6667 325.21 18.6667 324.544 18C323.944 17.3333 323.01 17 321.744 17H313.244ZM313.244 43.2V55H326.244C327.51 55 328.444 54.6667 329.044 54C329.71 53.3333 330.044 52.3333 330.044 51V47.1C330.044 45.7667 329.71 44.8 329.044 44.2C328.444 43.5333 327.51 43.2 326.244 43.2H313.244Z" fill="#DC3545"/>
</svg>
